<svg width="81" height="53" viewBox="0 0 81 53" fill="none" xmlns="http://www.w3.org/2000/svg">
<path d="M62.5271 21.3669C63.9973 19.9843 65.7574 18.8076 67.6495 17.6646C68.9475 16.8803 70.7066 15.73 70.4639 14.6192C70.301 13.8754 68.9514 13.1494 67.6487 13.7311C67.5588 13.7712 67.4766 13.8205 67.3991 13.8727C67.383 13.0825 67.975 12.2277 68.9521 11.5959C69.2673 11.3923 69.3465 11.0934 69.1181 10.9245C68.6583 10.5846 68.1984 10.2444 67.7385 9.90423C67.5619 9.77385 67.4169 9.51282 67.0786 9.57705C66.6815 9.65229 66.2891 9.76859 65.9088 9.90239C64.8781 10.2652 63.9677 10.8235 63.3073 11.4685C63.0333 11.7361 62.5242 11.8427 62.2134 11.6915C61.2533 11.2245 59.9964 11.0196 58.6424 11.0694C57.7879 11.1009 56.8994 11.2556 56.0472 11.506C55.8572 11.5621 55.6671 11.6257 55.4825 11.6944C55.2268 11.7894 55.106 11.8586 54.8747 11.7871C54.441 11.6529 54.2487 11.3321 54.1664 11.0183C53.8334 9.74337 55.6103 8.30424 54.9245 7.07612C54.5757 6.45138 53.7471 5.98612 53.1148 5.51021C52.3616 4.94353 51.6083 4.37659 50.8547 3.81C50.8274 3.78938 50.7757 3.80168 50.741 3.82163C47.4048 5.74289 44.0614 7.67164 40.7918 9.6543C40.6467 9.54688 40.5016 9.43945 40.3565 9.33203C40.2731 9.27032 40.2042 9.14722 40.0444 9.17736C39.8564 9.21294 39.6712 9.268 39.4914 9.3312C39.0037 9.5029 38.5735 9.76669 38.2612 10.0717C38.1316 10.1984 37.8909 10.2486 37.7439 10.1771C37.2902 9.9564 36.6955 9.85953 36.0554 9.88318C35.6512 9.89802 35.2314 9.97111 34.8284 10.0895C34.7385 10.116 34.6488 10.1459 34.5613 10.1785C34.4407 10.2234 34.3833 10.2561 34.2741 10.2223C34.0688 10.159 33.9779 10.0072 33.939 9.85878C33.7818 9.25606 34.6219 8.57556 34.2976 7.99483C34.1327 7.69948 33.741 7.47942 33.4418 7.25449C33.0855 6.98657 32.7296 6.71855 32.3733 6.45039C32.3605 6.4408 32.3359 6.4466 32.3194 6.45608C28.6333 8.57883 24.9261 10.7206 21.6993 13.1626C20.417 14.133 19.2217 15.1505 18.1564 16.2131C18.1542 16.2155 18.1532 16.2176 18.1522 16.2198C16.8699 16.8335 15.7818 17.6511 15.0508 18.5621C15.036 18.5807 15.0528 18.6066 15.088 18.5944C15.3283 18.5131 15.5217 18.5748 15.6378 18.6847C15.7575 18.7979 15.7274 18.95 15.6347 19.0995C15.4381 19.4168 14.933 19.7085 14.5682 19.9579C13.7256 20.5342 12.8358 21.0806 11.911 21.5954C11.8931 21.6055 11.8833 21.6191 11.8924 21.631C12.0764 21.8706 12.2029 22.1305 12.2717 22.4085C12.3018 22.5285 12.4926 22.5773 12.6852 22.5189C13.0104 22.4204 13.3389 22.3344 13.6691 22.2606C14.0068 22.1853 14.183 22.4268 13.921 22.6076C13.8023 22.6893 13.6837 22.7712 13.5647 22.8532C13.5523 22.8618 13.5462 22.876 13.5543 22.8839L14.0273 23.3427C14.13 23.4426 14.3532 23.438 14.5237 23.3326C15.3135 22.8429 16.1038 22.3533 16.8939 21.8635C17.1191 21.724 17.3445 21.5841 17.57 21.4445C17.7751 21.3173 17.9759 21.1785 18.1972 21.0645C18.4338 20.9427 18.9742 20.739 19.1367 20.9216C19.1888 20.9805 19.0443 21.063 18.9787 21.1168C18.8807 21.1974 18.7818 21.2775 18.6824 21.3574C18.5008 21.5041 18.316 21.6496 18.1298 21.7941C17.7579 22.0835 17.3764 22.368 16.9887 22.6488C16.2594 23.1766 15.5011 23.6879 14.7197 24.1826C14.6283 24.2404 14.5663 24.3446 14.5832 24.4138C14.6127 24.5358 14.6422 24.658 14.6717 24.78C14.6839 24.8302 14.6977 24.839 14.6144 24.8606C14.5601 24.8749 14.5066 24.8927 14.4537 24.9107C14.3614 24.9418 14.2739 24.9802 14.1881 25.0206C13.8293 25.1899 13.5511 25.4389 13.3988 25.697C13.0902 26.2204 13.4908 26.7192 14.1782 26.834C14.1902 26.8358 14.2065 26.8304 14.2166 26.8237C15.1185 26.2128 16.1229 25.6775 17.1984 25.2303C17.7438 25.0034 18.3072 24.8039 18.8791 24.629C18.9454 24.6089 19.0121 24.5891 19.0789 24.5695C19.1355 24.553 19.1234 24.5938 19.1299 24.6179C19.1464 24.6768 19.1427 24.74 19.132 24.8036C19.1085 24.9422 19.015 25.0855 18.9117 25.2189C18.7581 25.4169 18.5647 25.6073 18.381 25.7982C16.7105 26.8622 15.2857 28.0966 14.2202 29.4248C14.1884 29.4642 14.2239 29.5186 14.2986 29.4932C14.8064 29.3211 15.2158 29.4516 15.4616 29.6839C15.7144 29.9234 15.6508 30.245 15.4547 30.5612C15.0392 31.2323 13.9703 31.8494 13.1989 32.3767C11.4173 33.5954 9.53524 34.7509 7.57922 35.8399C7.54132 35.861 7.52057 35.89 7.53996 35.9151C7.92878 36.4218 8.19691 36.9716 8.34258 37.5593C8.40575 37.8133 8.8097 37.9162 9.21693 37.7929C9.90461 37.5846 10.5989 37.4024 11.2975 37.2467C12.0118 37.0874 12.385 37.598 11.8305 37.9801C11.5792 38.1535 11.3282 38.3266 11.0768 38.4998C11.0507 38.5177 11.0374 38.5479 11.055 38.565L12.0548 39.5355C12.2724 39.7467 12.7447 39.7367 13.105 39.5135C14.7757 38.4779 16.4468 37.4425 18.1174 36.4069C18.5942 36.1115 19.071 35.816 19.5473 35.5207C19.9813 35.2516 20.4059 34.9579 20.8739 34.7172C21.3747 34.4595 22.5174 34.0286 22.8606 34.4148C22.9715 34.5394 22.6654 34.7137 22.5268 34.8275C22.3198 34.9978 22.1106 35.1674 21.9005 35.3364C21.516 35.6468 21.1255 35.9542 20.7319 36.2601C19.9451 36.8719 19.1385 37.4737 18.3181 38.0677C16.7758 39.1838 15.172 40.265 13.5199 41.311C13.326 41.4339 13.1955 41.6537 13.2312 41.8004C13.2931 42.0584 13.3557 42.3165 13.4181 42.5748C13.4437 42.681 13.4732 42.6994 13.297 42.7454C13.1819 42.7753 13.069 42.8136 12.9568 42.8514C12.7622 42.917 12.5766 42.9985 12.3952 43.084C11.6365 43.4415 11.0479 43.9685 10.7263 44.514C10.0735 45.6212 10.9204 46.6759 12.3746 46.9183C12.3999 46.9227 12.4344 46.9108 12.4551 46.8967C14.363 45.6053 16.4875 44.4729 18.7617 43.527C19.9151 43.0472 21.1063 42.6256 22.316 42.2555C22.4565 42.2127 22.5974 42.1711 22.7384 42.1298C22.8584 42.0946 22.8324 42.1809 22.8468 42.2319C22.8814 42.3567 22.8737 42.4906 22.851 42.625C22.8015 42.918 22.6038 43.2208 22.3851 43.5028C21.5556 44.5725 20.1744 45.5357 20.0029 46.6933C19.8172 47.9454 21.2687 48.7433 22.6328 49.2393C23.2366 49.4589 23.8906 49.6308 24.5601 49.7792C24.6847 49.807 24.8603 49.8655 25.0327 49.9033C25.2059 49.9412 25.4151 49.9212 25.6076 49.8519C25.9778 49.7192 26.348 49.5863 26.7183 49.4536C27.1625 49.2941 27.6072 49.1347 28.0514 48.9753C28.2913 48.8893 28.8864 49.4556 29.0211 49.5506C29.089 49.5989 29.388 49.731 29.2789 49.8322C29.1165 49.9831 28.9541 50.1337 28.7917 50.2843C28.5682 50.4918 28.3446 50.6993 28.1213 50.9064C27.9256 51.0881 27.9011 51.3486 28.0816 51.4761C28.9951 52.1211 30.6405 52.1501 32.1504 51.8146C34.492 51.2941 36.4921 49.8831 38.3244 48.74C40.3315 47.4879 42.3381 46.2359 44.3451 44.9838C44.648 44.8376 44.9573 44.6973 45.2733 44.5658C45.8187 44.3393 46.3821 44.1398 46.954 43.9649C47.0202 43.9444 47.087 43.9249 47.1539 43.9054C47.2103 43.8886 47.1983 43.9294 47.2048 43.9537C47.2213 44.0126 47.2177 44.0759 47.207 44.1394C47.1835 44.278 47.09 44.4213 46.9866 44.5545C46.5942 45.0604 45.9413 45.5158 45.86 46.063C45.7725 46.6551 46.4589 47.0324 47.1039 47.2669C47.3893 47.3708 47.6985 47.4522 48.0149 47.5224C48.0738 47.5353 48.1568 47.5631 48.2388 47.581C48.3204 47.599 48.4192 47.5895 48.5106 47.5567C48.6854 47.4938 48.8606 47.4311 49.0354 47.3684C49.2456 47.293 49.4558 47.2174 49.666 47.1421C49.7795 47.1015 50.0609 47.3693 50.1244 47.4143C50.1566 47.437 50.298 47.4994 50.2463 47.5473C50.1695 47.6185 50.0928 47.69 50.016 47.7612C49.9104 47.8592 49.8044 47.9572 49.6988 48.0553C49.6062 48.1411 49.5948 48.2642 49.6802 48.3246C50.1121 48.6297 50.89 48.6433 51.604 48.4846C52.7112 48.2386 53.657 47.5715 54.5234 47.0309C56.5752 45.7508 58.6274 44.4706 60.6792 43.1906L64.1853 41.003C64.7712 40.6376 65.3584 40.2725 65.9433 39.9062C66.2424 39.7189 66.5366 39.5241 66.7722 39.3065C66.9353 39.1557 66.8386 38.9804 66.5927 38.9818C66.5868 38.9818 66.5808 38.9818 66.5753 38.9817C66.3073 38.9817 66.2249 38.7774 66.4329 38.6268C67.6697 37.7303 68.9065 36.8339 70.1434 35.9377C70.2548 35.857 70.2905 35.7494 70.2321 35.6717C69.928 35.267 69.6238 34.8622 69.3197 34.4576C69.3111 34.446 69.2881 34.4461 69.2688 34.4539C68.9345 34.5908 68.5912 34.7043 68.2344 34.7969C68.2048 34.8046 68.1103 34.8257 68.0804 34.8324C67.9734 34.8572 67.6877 34.9477 67.6764 34.8555C67.6539 34.6749 67.55 34.5144 67.3924 34.3856C67.2699 34.2856 67.0335 34.3076 66.872 34.4332C66.541 34.6906 66.132 34.8989 65.6793 35.0402C65.535 35.0851 65.5266 34.9412 65.4938 34.8779C65.4509 34.7944 65.3601 34.7067 65.4527 34.6057C65.6138 34.4296 65.7871 34.2575 65.9673 34.0877C66.6626 33.4341 67.4947 32.8776 68.3893 32.3372C69.0031 31.9663 69.835 31.4224 69.7199 30.8973C69.6429 30.5456 69.0052 30.2021 68.3892 30.4772C68.3464 30.4964 68.3075 30.5196 68.271 30.5444C68.2632 30.1706 68.5435 29.7663 69.0052 29.4678C69.1544 29.3715 69.1918 29.2302 69.0838 29.1504C68.8662 28.9895 68.649 28.8288 68.4315 28.6679C68.3481 28.6062 68.2794 28.4827 68.1193 28.5132C67.9317 28.5487 67.7461 28.6038 67.5663 28.667C67.079 28.8386 66.6484 29.1025 66.3361 29.4076C66.2065 29.5342 65.9662 29.5844 65.8188 29.513C65.7583 29.4834 65.6944 29.4564 65.6292 29.4313C67.5388 28.0473 69.4487 26.6632 71.3587 25.2791C71.5944 25.108 71.6707 24.881 71.5467 24.7163C70.9034 23.8605 70.2601 23.0048 69.6168 22.1488C69.5989 22.1246 69.5498 22.1245 69.5098 22.1411C68.8022 22.4304 68.0759 22.6704 67.322 22.8665C67.259 22.8826 67.0592 22.9273 66.9958 22.9419C66.7694 22.9939 66.1655 23.1854 66.1415 22.9903C66.0939 22.6084 65.8745 22.2688 65.5413 21.9966C65.2824 21.785 64.7819 21.8319 64.4404 22.0974C63.7405 22.6418 62.8751 23.0826 61.9177 23.3809C61.6127 23.4762 61.5945 23.1715 61.5255 23.0375C61.4347 22.8609 61.2435 22.6759 61.4389 22.4622C61.7792 22.09 62.1457 21.7256 62.5271 21.3669Z" fill="#FFE466" fill-opacity="0.5"/>
<path d="M11.8488 18.1992C11.8488 18.1992 14.1262 16.8599 17.2723 14.2096C20.4184 11.5593 21.5147 10.4514 24.7708 8.49233C28.0266 6.53359 30.1864 5.68236 28.9046 6.84C27.6225 7.99774 23.0846 11.1145 18.1248 14.887C13.1653 18.6591 8.17192 22.3049 11.8488 18.1992Z" fill="#FFE466" fill-opacity="0.5"/>
<path d="M60.0531 44.8847C60.0531 44.8847 62.3305 43.5456 65.4766 40.8953C68.6227 38.245 69.7191 37.1371 72.9752 35.178C76.2309 33.2191 78.3906 32.3678 77.1088 33.5255C75.8268 34.6835 71.2889 37.8002 66.329 41.5724C61.3696 45.3448 56.3762 48.9906 60.0531 44.8847Z" fill="#FFE466" fill-opacity="0.5"/>
<path d="M9.85354 22.2834C10.0825 23.1395 9.57631 24.0194 8.723 24.2485C7.86969 24.4777 6.99236 23.9694 6.76343 23.1132C6.5345 22.2571 7.04066 21.3772 7.89397 21.1481C8.74728 20.9189 9.62461 21.4272 9.85354 22.2834Z" fill="#FFE466" fill-opacity="0.5"/>
<path d="M6.60899 16.3424C6.72345 16.7704 6.47037 17.2104 6.04371 17.3249C5.61706 17.4395 5.1784 17.1854 5.06393 16.7573C4.94947 16.3292 5.20255 15.8893 5.6292 15.7747C6.05586 15.6601 6.49452 15.9143 6.60899 16.3424Z" fill="#FFE466" fill-opacity="0.5"/>
<path d="M4.75116 21.1613C4.86562 21.5894 4.61254 22.0293 4.18589 22.1439C3.75923 22.2584 3.32057 22.0043 3.2061 21.5762C3.09164 21.1481 3.34472 20.7082 3.77138 20.5936C4.19803 20.479 4.63669 20.7332 4.75116 21.1613Z" fill="#FFE466" fill-opacity="0.5"/>
<path d="M12.1956 24.2298C12.2758 24.5295 12.0986 24.8374 11.8 24.9176C11.5013 24.9978 11.1942 24.8199 11.1141 24.5203C11.034 24.2206 11.2111 23.9127 11.5098 23.8325C11.8085 23.7523 12.1155 23.9301 12.1956 24.2298Z" fill="#FFE466" fill-opacity="0.5"/>
<path d="M8.7399 28.6471C8.82003 28.9467 8.64287 29.2547 8.34421 29.3349C8.04555 29.4151 7.73849 29.2372 7.65836 28.9375C7.57824 28.6379 7.7554 28.3299 8.05405 28.2497C8.35271 28.1695 8.65978 28.3474 8.7399 28.6471Z" fill="#FFE466" fill-opacity="0.5"/>
<path d="M1.16916 30.6802C1.24928 30.9799 1.07213 31.2878 0.773469 31.368C0.474811 31.4483 0.167746 31.2704 0.0876214 30.9707C0.00749655 30.671 0.184653 30.3631 0.483312 30.2829C0.78197 30.2027 1.08903 30.3806 1.16916 30.6802Z" fill="#FFE466" fill-opacity="0.5"/>
<path d="M7.25888 30.5402C7.45347 31.268 7.02323 32.0158 6.29792 32.2106C5.57261 32.4054 4.82688 31.9733 4.63229 31.2456C4.4377 30.5179 4.86794 29.77 5.59325 29.5752C6.31857 29.3804 7.06429 29.8125 7.25888 30.5402Z" fill="#FFE466" fill-opacity="0.5"/>
<path d="M39.9652 2.98131C40.1598 3.70905 39.7296 4.45691 39.0043 4.65169C38.279 4.84648 37.5332 4.41443 37.3387 3.68669C37.1441 2.95895 37.5743 2.21109 38.2996 2.0163C39.0249 1.82152 39.7707 2.25356 39.9652 2.98131Z" fill="#FFE466" fill-opacity="0.5"/>
<path d="M45.5797 49.9907C45.7743 50.7184 45.3441 51.4663 44.6188 51.6611C43.8935 51.8559 43.1477 51.4238 42.9531 50.6961C42.7586 49.9683 43.1888 49.2205 43.9141 49.0257C44.6394 48.8309 45.3851 49.2629 45.5797 49.9907Z" fill="#FFE466" fill-opacity="0.5"/>
<path d="M76.0795 42.049C76.4687 43.5045 75.6082 45.0002 74.1576 45.3898C72.707 45.7794 71.2155 44.9153 70.8263 43.4598C70.4371 42.0043 71.2976 40.5086 72.7483 40.119C74.1989 39.7295 75.6903 40.5936 76.0795 42.049Z" fill="#FFE466" fill-opacity="0.5"/>
<path d="M75.5841 27.8097C75.7558 28.4519 75.3762 29.1117 74.7362 29.2836C74.0962 29.4555 73.4382 29.0743 73.2665 28.4321C73.0948 27.79 73.4744 27.1301 74.1144 26.9583C74.7544 26.7864 75.4124 27.1676 75.5841 27.8097Z" fill="#FFE466" fill-opacity="0.5"/>
<path d="M80.0873 34.742C80.1903 35.1272 79.9625 35.5231 79.5786 35.6263C79.1946 35.7294 78.7998 35.5007 78.6967 35.1154C78.5937 34.7301 78.8215 34.3342 79.2055 34.2311C79.5895 34.1279 79.9843 34.3567 80.0873 34.742Z" fill="#FFE466" fill-opacity="0.5"/>
<path d="M77.8527 28.862C77.9099 29.0761 77.7834 29.296 77.57 29.3533C77.3567 29.4106 77.1374 29.2835 77.0802 29.0695C77.0229 28.8554 77.1495 28.6355 77.3628 28.5782C77.5761 28.5209 77.7954 28.648 77.8527 28.862Z" fill="#FFE466" fill-opacity="0.5"/>
<path d="M43.1665 0.70926C43.2581 1.05173 43.0557 1.40366 42.7143 1.49532C42.373 1.58699 42.0221 1.38367 41.9305 1.0412C41.8389 0.698738 42.0414 0.346805 42.3827 0.255141C42.724 0.163477 43.075 0.366793 43.1665 0.70926Z" fill="#FFE466" fill-opacity="0.5"/>
<path d="M74.4519 8.09214C74.6579 8.86269 74.2024 9.65454 73.4344 9.86078C72.6664 10.067 71.8768 9.60957 71.6708 8.83902C71.4648 8.06846 71.9203 7.27662 72.6883 7.07037C73.4563 6.86413 74.2458 7.32159 74.4519 8.09214Z" fill="#FFE466" fill-opacity="0.5"/>
<path d="M34.6255 1.59069C34.7285 1.97596 34.5007 2.37189 34.1167 2.47501C33.7327 2.57813 33.3379 2.3494 33.2349 1.96413C33.1319 1.57885 33.3597 1.18293 33.7436 1.0798C34.1276 0.976682 34.5224 1.20541 34.6255 1.59069Z" fill="#FFE466" fill-opacity="0.5"/>
<path d="M59.3613 4.91708C59.4643 5.30235 59.2365 5.69828 58.8525 5.8014C58.4685 5.90452 58.0737 5.67579 57.9707 5.29051C57.8677 4.90524 58.0955 4.50932 58.4795 4.40619C58.8634 4.30307 59.2582 4.5318 59.3613 4.91708Z" fill="#FFE466" fill-opacity="0.5"/>
<path d="M71.552 18.9233C71.655 19.3086 71.4272 19.7045 71.0432 19.8076C70.6592 19.9107 70.2644 19.682 70.1614 19.2967C70.0584 18.9115 70.2862 18.5155 70.6702 18.4124C71.0541 18.3093 71.449 18.538 71.552 18.9233Z" fill="#FFE466" fill-opacity="0.5"/>
<path d="M29.613 46.6355C29.716 47.0208 29.4883 47.4167 29.1043 47.5198C28.7203 47.6229 28.3255 47.3942 28.2225 47.0089C28.1195 46.6237 28.3472 46.2277 28.7312 46.1246C29.1152 46.0215 29.51 46.2502 29.613 46.6355Z" fill="#FFE466" fill-opacity="0.5"/>
<path d="M67.919 35.6837C67.9763 35.8977 67.8497 36.1177 67.6364 36.1749C67.4231 36.2322 67.2037 36.1052 67.1465 35.8911C67.0893 35.6771 67.2158 35.4571 67.4291 35.3998C67.6425 35.3425 67.8618 35.4696 67.919 35.6837Z" fill="#FFE466" fill-opacity="0.5"/>
<path d="M64.6631 35.8934C64.6974 36.0218 64.6215 36.1538 64.4935 36.1882C64.3655 36.2226 64.2339 36.1463 64.1996 36.0179C64.1652 35.8895 64.2412 35.7575 64.3692 35.7231C64.4972 35.6887 64.6288 35.765 64.6631 35.8934Z" fill="#FFE466" fill-opacity="0.5"/>
<g clip-path="url(#clip0_302_742)">
<path d="M56.2947 46.7571H53.0778L53.4293 34.0593C53.4842 32.0726 52.3463 30.267 50.5302 29.4593L46.7793 27.7913C46.7566 27.7811 46.7337 27.7728 46.7106 27.7654L46.181 27.313C48.8571 26.5014 50.8583 25.5079 50.9532 25.4605C51.2772 25.2985 51.4087 24.9033 51.249 24.5781C51.2355 24.5508 49.9085 21.7786 49.9085 15.7118V12.8936C49.9085 7.47981 45.504 3.07544 40.0902 3.07544C34.6764 3.07544 30.2721 7.47981 30.2721 12.8936V15.7118C30.2721 21.7786 28.9449 24.5508 28.9326 24.576C28.7697 24.9017 28.9017 25.2976 29.2274 25.4605C29.3229 25.5082 31.3238 26.5017 33.9993 27.3132L33.3981 27.8268L29.727 29.4594C27.9109 30.267 26.7729 32.0726 26.8279 34.0594L27.1794 46.7571H23.8857C23.5217 46.7571 23.2266 47.0522 23.2266 47.4163C23.2266 47.7803 23.5217 48.0754 23.8857 48.0754H56.2947C56.6587 48.0754 56.9539 47.7803 56.9539 47.4163C56.9539 47.0522 56.6587 46.7571 56.2947 46.7571ZM31.5902 12.8938C31.5904 8.20685 35.4034 4.3938 40.0902 4.3938C44.7771 4.3938 48.5901 8.20685 48.5901 12.8936V15.7118C48.5901 20.5276 49.3875 23.3687 49.8119 24.5397C48.9351 24.9363 47.1042 25.7092 44.9798 26.2869L44.7456 26.087C44.614 25.9746 44.4437 25.9197 44.2721 25.9315V24.2926C45.5069 23.4927 46.5134 22.3403 47.1325 20.938C47.4949 20.1173 47.6987 19.2055 47.7219 18.301C47.7981 15.328 45.2475 14.575 42.547 13.7777C40.2848 13.1098 37.7207 12.3529 35.6181 10.3076C35.3571 10.0538 34.9398 10.0596 34.686 10.3204C34.4322 10.5815 34.4379 10.9988 34.6988 11.2526C37.0351 13.525 39.8844 14.3662 42.1738 15.0422C45.0647 15.8956 46.4521 16.3892 46.4039 18.2672C46.3851 19.0014 46.2201 19.7408 45.9265 20.4055C44.9057 22.7178 42.6147 24.2118 40.0902 24.2118C37.0115 24.2118 34.3734 22.0146 33.8173 18.9875C33.693 18.3108 33.0664 17.8196 32.3915 17.869C32.3177 17.8745 32.2422 17.868 32.1663 17.85C31.838 17.7723 31.5903 17.4192 31.5903 17.0286V16.4879C31.5903 16.0877 31.8521 15.74 32.1994 15.6791C32.4855 15.6289 32.7605 15.7343 32.9345 15.9613C33.0607 16.1258 33.2288 16.2434 33.4205 16.3013C33.7013 16.3861 34.011 16.3365 34.2492 16.1683C34.8258 15.7614 35.3145 15.2451 35.7018 14.6339C35.8966 14.3264 35.8054 13.9192 35.4979 13.7243C35.1903 13.5294 34.7831 13.6207 34.5882 13.9282C34.3525 14.3 34.0687 14.6249 33.7419 14.8971C33.2713 14.4623 32.6207 14.2666 31.9714 14.3805C31.839 14.4038 31.7118 14.4408 31.5902 14.4886V12.8938ZM37.2266 27.3556V24.9771C38.1159 25.3338 39.0832 25.53 40.0901 25.53C41.09 25.53 42.0589 25.3347 42.9537 24.9752V27.3555L40.9641 30.1224C40.9618 30.1255 40.96 30.129 40.9577 30.1322C40.9555 30.1354 40.953 30.1383 40.9508 30.1415L40.1279 31.3758C40.1232 31.3829 40.1145 31.396 40.0901 31.396C40.0658 31.396 40.0571 31.3829 40.0523 31.3758L39.2295 30.1415C39.2273 30.1383 39.2248 30.1354 39.2226 30.1322C39.2203 30.129 39.2185 30.1255 39.2162 30.1224L37.2266 27.3556ZM37.7688 30.3675L36.8182 31.0804C36.6398 31.2142 36.4131 31.2616 36.196 31.2104C35.979 31.1591 35.7972 31.0153 35.6975 30.8159L34.5696 28.5599L35.7462 27.5548L37.7688 30.3675ZM44.4343 27.5548L45.611 28.5599L44.483 30.8159C44.3832 31.0154 44.2016 31.1591 43.9846 31.2104C43.7675 31.2616 43.5407 31.2142 43.3623 31.0805L42.4118 30.3675L44.4343 27.5548ZM30.3686 24.5398C30.6859 23.6643 31.2116 21.8547 31.4567 18.9846C31.5853 19.048 31.7205 19.0992 31.8626 19.1329C32.0671 19.1812 32.2748 19.1986 32.4798 19.1844C32.495 19.1905 32.517 19.2128 32.5206 19.2256C32.9152 21.3737 34.1791 23.1745 35.9083 24.2945V25.9315C35.7367 25.9197 35.5664 25.9746 35.4348 26.087L35.2008 26.2869C33.0761 25.7091 31.2452 24.9363 30.3686 24.5398ZM30.2626 30.664L33.4409 29.2505L34.5183 31.4055C34.7934 31.9556 35.2945 32.3522 35.893 32.4934C36.0511 32.5308 36.2111 32.5491 36.3701 32.5491C36.8128 32.5491 37.2471 32.4067 37.6092 32.1352L38.5193 31.4526L38.9556 32.1071C39.2091 32.4874 39.6333 32.7144 40.0903 32.7144C40.5473 32.7144 40.9715 32.4874 41.225 32.1071L41.6613 31.4526L42.5713 32.1352C42.9334 32.4067 43.3678 32.5491 43.8105 32.5491C43.9694 32.5491 44.1294 32.5308 44.2875 32.4934C44.8862 32.3522 45.3871 31.9556 45.6622 31.4055L46.7537 29.2226L49.9947 30.664C50.2493 30.7772 50.4854 30.9174 50.7008 31.0801L48.3047 34.0753H31.9527L29.5565 31.0801C29.7719 30.9175 30.0079 30.7772 30.2626 30.664ZM29.6513 36.2583L30.1993 46.1218C30.2117 46.3453 30.2598 46.5586 30.3371 46.7571H28.4983L28.1457 34.0229C28.1262 33.3183 28.3127 32.6452 28.6611 32.0713L30.5522 34.4351C30.4301 34.518 30.3163 34.6138 30.2138 34.7222C29.8249 35.1334 29.6198 35.6932 29.6513 36.2583ZM49.2131 36.1852L48.6651 46.0489C48.643 46.446 48.3142 46.7572 47.9164 46.7572H32.2642V46.7571C31.8664 46.7571 31.5375 46.4459 31.5154 46.0488L30.9674 36.1852C30.9559 35.9773 31.0283 35.7795 31.1714 35.6283C31.3145 35.477 31.508 35.3938 31.7162 35.3938H48.4644C48.6726 35.3938 48.866 35.477 49.0091 35.6283C49.1522 35.7795 49.2246 35.9773 49.2131 36.1852ZM51.7589 46.7571H49.8435C49.9208 46.5586 49.969 46.3453 49.9813 46.1219L50.5293 36.2584C50.5607 35.6932 50.3557 35.1334 49.9668 34.7222C49.8782 34.6285 49.781 34.5444 49.6775 34.4696L51.5962 32.0713C51.9445 32.6452 52.131 33.3183 52.1115 34.0229L51.7589 46.7571Z" fill="black"/>
<path d="M40.0905 39.007C38.7558 39.007 37.6699 40.0929 37.6699 41.4276C37.6699 42.7624 38.7557 43.8482 40.0905 43.8482C41.4253 43.8482 42.5111 42.7624 42.5111 41.4276C42.5111 40.0929 41.4252 39.007 40.0905 39.007ZM40.0905 42.5298C39.4828 42.5298 38.9883 42.0353 38.9883 41.4276C38.9883 40.8198 39.4827 40.3253 40.0905 40.3253C40.6984 40.3253 41.1928 40.8198 41.1928 41.4276C41.1928 42.0353 40.6983 42.5298 40.0905 42.5298Z" fill="black"/>
</g>
<defs>
<clipPath id="clip0_302_742">
<rect width="45" height="45" fill="white" transform="translate(17.5898 3.07544)"/>
</clipPath>
</defs>
</svg>
