<svg width="81" height="53" viewBox="0 0 81 53" fill="none" xmlns="http://www.w3.org/2000/svg">
<path d="M62.9373 21.3669C64.4075 19.9843 66.1675 18.8076 68.0596 17.6646C69.3577 16.8803 71.1168 15.73 70.874 14.6192C70.7112 13.8754 69.3616 13.1494 68.0588 13.7311C67.969 13.7712 67.8868 13.8205 67.8093 13.8727C67.7932 13.0825 68.3852 12.2277 69.3622 11.5959C69.6775 11.3923 69.7567 11.0934 69.5283 10.9245C69.0684 10.5846 68.6086 10.2444 68.1487 9.90423C67.9721 9.77385 67.8271 9.51282 67.4888 9.57705C67.0917 9.65229 66.6992 9.76859 66.319 9.90239C65.2882 10.2652 64.3778 10.8235 63.7174 11.4685C63.4434 11.7361 62.9344 11.8427 62.6236 11.6915C61.6635 11.2245 60.4065 11.0196 59.0526 11.0694C58.198 11.1009 57.3096 11.2556 56.4574 11.506C56.2673 11.5621 56.0773 11.6257 55.8926 11.6944C55.637 11.7894 55.5161 11.8586 55.2848 11.7871C54.8511 11.6529 54.6589 11.3321 54.5766 11.0183C54.2436 9.74337 56.0205 8.30424 55.3346 7.07612C54.9859 6.45138 54.1573 5.98612 53.5249 5.51021C52.7717 4.94353 52.0184 4.37659 51.2649 3.81C51.2376 3.78938 51.1858 3.80168 51.1512 3.82163C47.8149 5.74289 44.4716 7.67164 41.202 9.6543C41.0569 9.54688 40.9118 9.43945 40.7667 9.33203C40.6833 9.27032 40.6143 9.14722 40.4546 9.17736C40.2666 9.21294 40.0814 9.268 39.9015 9.3312C39.4138 9.5029 38.9836 9.76669 38.6713 10.0717C38.5417 10.1984 38.301 10.2486 38.154 10.1771C37.7004 9.9564 37.1056 9.85953 36.4655 9.88318C36.0614 9.89802 35.6415 9.97111 35.2386 10.0895C35.1487 10.116 35.0589 10.1459 34.9714 10.1785C34.8508 10.2234 34.7935 10.2561 34.6843 10.2223C34.4789 10.159 34.3881 10.0072 34.3492 9.85878C34.192 9.25606 35.0321 8.57556 34.7078 7.99483C34.5429 7.69948 34.1512 7.47942 33.8519 7.25449C33.4957 6.98657 33.1398 6.71855 32.7835 6.45039C32.7706 6.4408 32.746 6.4466 32.7296 6.45608C29.0434 8.57883 25.3362 10.7206 22.1095 13.1626C20.8272 14.133 19.6318 15.1505 18.5665 16.2131C18.5644 16.2155 18.5634 16.2176 18.5624 16.2198C17.2801 16.8335 16.192 17.6511 15.461 18.5621C15.4462 18.5807 15.463 18.6066 15.4982 18.5944C15.7385 18.5131 15.9319 18.5748 16.048 18.6847C16.1677 18.7979 16.1375 18.95 16.0449 19.0995C15.8483 19.4168 15.3432 19.7085 14.9784 19.9579C14.1358 20.5342 13.2459 21.0806 12.3211 21.5954C12.3033 21.6055 12.2934 21.6191 12.3025 21.631C12.4866 21.8706 12.6131 22.1305 12.6819 22.4085C12.7119 22.5285 12.9027 22.5773 13.0953 22.5189C13.4205 22.4204 13.749 22.3344 14.0792 22.2606C14.4169 22.1853 14.5931 22.4268 14.3311 22.6076C14.2124 22.6893 14.0938 22.7712 13.9748 22.8532C13.9625 22.8618 13.9564 22.876 13.9644 22.8839L14.4374 23.3427C14.5402 23.4426 14.7634 23.438 14.9339 23.3326C15.7237 22.8429 16.5139 22.3533 17.3041 21.8635C17.5292 21.724 17.7547 21.5841 17.9802 21.4445C18.1853 21.3173 18.386 21.1785 18.6073 21.0645C18.8439 20.9427 19.3844 20.739 19.5468 20.9216C19.599 20.9805 19.4544 21.063 19.3888 21.1168C19.2908 21.1974 19.1919 21.2775 19.0926 21.3574C18.9109 21.5041 18.7261 21.6496 18.5399 21.7941C18.168 22.0835 17.7865 22.368 17.3989 22.6488C16.6695 23.1766 15.9112 23.6879 15.1299 24.1826C15.0385 24.2404 14.9765 24.3446 14.9934 24.4138C15.0229 24.5358 15.0524 24.658 15.0818 24.78C15.0941 24.8302 15.1079 24.839 15.0246 24.8606C14.9702 24.8749 14.9168 24.8927 14.8638 24.9107C14.7716 24.9418 14.6841 24.9802 14.5983 25.0206C14.2394 25.1899 13.9612 25.4389 13.809 25.697C13.5004 26.2204 13.901 26.7192 14.5884 26.834C14.6003 26.8358 14.6167 26.8304 14.6268 26.8237C15.5287 26.2128 16.5331 25.6775 17.6086 25.2303C18.1539 25.0034 18.7173 24.8039 19.2893 24.629C19.3555 24.6089 19.4223 24.5891 19.4891 24.5695C19.5456 24.553 19.5336 24.5938 19.54 24.6179C19.5566 24.6768 19.5529 24.74 19.5422 24.8036C19.5187 24.9422 19.4252 25.0855 19.3219 25.2189C19.1682 25.4169 18.9749 25.6073 18.7912 25.7982C17.1206 26.8622 15.6959 28.0966 14.6304 29.4248C14.5985 29.4642 14.634 29.5186 14.7088 29.4932C15.2166 29.3211 15.6259 29.4516 15.8717 29.6839C16.1246 29.9234 16.061 30.245 15.8648 30.5612C15.4493 31.2323 14.3805 31.8494 13.6091 32.3767C11.8274 33.5954 9.94539 34.7509 7.98938 35.8399C7.95147 35.861 7.93072 35.89 7.95011 35.9151C8.33894 36.4218 8.60707 36.9716 8.75274 37.5593C8.8159 37.8133 9.21985 37.9162 9.62709 37.7929C10.3148 37.5846 11.0091 37.4024 11.7077 37.2467C12.4219 37.0874 12.7952 37.598 12.2406 37.9801C11.9893 38.1535 11.7383 38.3266 11.4869 38.4998C11.4609 38.5177 11.4476 38.5479 11.4652 38.565L12.4649 39.5355C12.6825 39.7467 13.1548 39.7367 13.5152 39.5135C15.1858 38.4779 16.8569 37.4425 18.5276 36.4069C19.0043 36.1115 19.4811 35.816 19.9575 35.5207C20.3915 35.2516 20.816 34.9579 21.2841 34.7172C21.7848 34.4595 22.9276 34.0286 23.2707 34.4148C23.3816 34.5394 23.0755 34.7137 22.9369 34.8275C22.7299 34.9978 22.5208 35.1674 22.3106 35.3364C21.9261 35.6468 21.5357 35.9542 21.142 36.2601C20.3552 36.8719 19.5487 37.4737 18.7282 38.0677C17.1859 39.1838 15.5821 40.265 13.9301 41.311C13.7361 41.4339 13.6057 41.6537 13.6413 41.8004C13.7032 42.0584 13.7659 42.3165 13.8282 42.5748C13.8538 42.681 13.8833 42.6994 13.7072 42.7454C13.5921 42.7753 13.4792 42.8136 13.367 42.8514C13.1724 42.917 12.9867 42.9985 12.8053 43.084C12.0467 43.4415 11.4581 43.9685 11.1364 44.514C10.4836 45.6212 11.3305 46.6759 12.7848 46.9183C12.8101 46.9227 12.8445 46.9108 12.8653 46.8967C14.7731 45.6053 16.8976 44.4729 19.1718 43.527C20.3253 43.0472 21.5164 42.6256 22.7261 42.2555C22.8667 42.2127 23.0076 42.1711 23.1485 42.1298C23.2686 42.0946 23.2426 42.1809 23.257 42.2319C23.2916 42.3567 23.2838 42.4906 23.2612 42.625C23.2117 42.918 23.0139 43.2208 22.7952 43.5028C21.9658 44.5725 20.5845 45.5357 20.4131 46.6933C20.2274 47.9454 21.6789 48.7433 23.043 49.2393C23.6468 49.4589 24.3008 49.6308 24.9703 49.7792C25.0949 49.807 25.2704 49.8655 25.4428 49.9033C25.616 49.9412 25.8252 49.9212 26.0177 49.8519C26.388 49.7192 26.7582 49.5863 27.1284 49.4536C27.5727 49.2941 28.0173 49.1347 28.4616 48.9753C28.7014 48.8893 29.2966 49.4556 29.4313 49.5506C29.4992 49.5989 29.7982 49.731 29.689 49.8322C29.5267 49.9831 29.3643 50.1337 29.2019 50.2843C28.9783 50.4918 28.7547 50.6993 28.5314 50.9064C28.3358 51.0881 28.3112 51.3486 28.4918 51.4761C29.4053 52.1211 31.0506 52.1501 32.5605 51.8146C34.9021 51.2941 36.9023 49.8831 38.7346 48.74C40.7416 47.4879 42.7483 46.2359 44.7553 44.9838C45.0582 44.8376 45.3675 44.6973 45.6834 44.5658C46.2289 44.3393 46.7923 44.1398 47.3642 43.9649C47.4304 43.9444 47.4972 43.9249 47.564 43.9054C47.6205 43.8886 47.6084 43.9294 47.6149 43.9537C47.6315 44.0126 47.6278 44.0759 47.6171 44.1394C47.5936 44.278 47.5001 44.4213 47.3968 44.5545C47.0044 45.0604 46.3515 45.5158 46.2702 46.063C46.1827 46.6551 46.869 47.0324 47.514 47.2669C47.7995 47.3708 48.1086 47.4522 48.4251 47.5224C48.484 47.5353 48.567 47.5631 48.649 47.581C48.7306 47.599 48.8294 47.5895 48.9208 47.5567C49.0955 47.4938 49.2707 47.4311 49.4456 47.3684C49.6558 47.293 49.866 47.2174 50.0762 47.1421C50.1896 47.1015 50.471 47.3693 50.5345 47.4143C50.5667 47.437 50.7081 47.4994 50.6564 47.5473C50.5796 47.6185 50.503 47.69 50.4262 47.7612C50.3206 47.8592 50.2146 47.9572 50.109 48.0553C50.0164 48.1411 50.0049 48.2642 50.0904 48.3246C50.5223 48.6297 51.3002 48.6433 52.0142 48.4846C53.1213 48.2386 54.0671 47.5715 54.9336 47.0309C56.9854 45.7508 59.0375 44.4706 61.0893 43.1906L64.5955 41.003C65.1814 40.6376 65.7686 40.2725 66.3535 39.9062C66.6525 39.7189 66.9468 39.5241 67.1823 39.3065C67.3455 39.1557 67.2487 38.9804 67.0029 38.9818C66.9969 38.9818 66.991 38.9818 66.9854 38.9817C66.7175 38.9817 66.6351 38.7774 66.843 38.6268C68.0798 37.7303 69.3166 36.8339 70.5535 35.9377C70.6649 35.857 70.7007 35.7494 70.6423 35.6717C70.3382 35.267 70.034 34.8622 69.7298 34.4576C69.7212 34.446 69.6983 34.4461 69.679 34.4539C69.3447 34.5908 69.0013 34.7043 68.6445 34.7969C68.6149 34.8046 68.5204 34.8257 68.4905 34.8324C68.3835 34.8572 68.0978 34.9477 68.0866 34.8555C68.0641 34.6749 67.9602 34.5144 67.8026 34.3856C67.6801 34.2856 67.4437 34.3076 67.2821 34.4332C66.9512 34.6906 66.5421 34.8989 66.0895 35.0402C65.9451 35.0851 65.9367 34.9412 65.904 34.8779C65.861 34.7944 65.7703 34.7067 65.8628 34.6057C66.024 34.4296 66.1972 34.2575 66.3775 34.0877C67.0728 33.4341 67.9049 32.8776 68.7995 32.3372C69.4132 31.9663 70.2451 31.4224 70.1301 30.8973C70.0531 30.5456 69.4153 30.2021 68.7993 30.4772C68.7566 30.4964 68.7177 30.5196 68.6811 30.5444C68.6734 30.1706 68.9536 29.7663 69.4153 29.4678C69.5646 29.3715 69.602 29.2302 69.4939 29.1504C69.2764 28.9895 69.0592 28.8288 68.8416 28.6679C68.7582 28.6062 68.6896 28.4827 68.5295 28.5132C68.3419 28.5487 68.1563 28.6038 67.9765 28.667C67.4891 28.8386 67.0586 29.1025 66.7463 29.4076C66.6166 29.5342 66.3763 29.5844 66.229 29.513C66.1684 29.4834 66.1046 29.4564 66.0393 29.4313C67.9489 28.0473 69.8589 26.6632 71.7689 25.2791C72.0046 25.108 72.0808 24.881 71.9568 24.7163C71.3136 23.8605 70.6703 23.0048 70.027 22.1488C70.009 22.1246 69.9599 22.1245 69.92 22.1411C69.2124 22.4304 68.4861 22.6704 67.7322 22.8665C67.6692 22.8826 67.4693 22.9273 67.406 22.9419C67.1796 22.9939 66.5757 23.1854 66.5516 22.9903C66.5041 22.6084 66.2847 22.2688 65.9514 21.9966C65.6926 21.785 65.1921 21.8319 64.8506 22.0974C64.1506 22.6418 63.2852 23.0826 62.3279 23.3809C62.0228 23.4762 62.0047 23.1715 61.9356 23.0375C61.8449 22.8609 61.6537 22.6759 61.8491 22.4622C62.1893 22.09 62.5558 21.7256 62.9373 21.3669Z" fill="#FFE466" fill-opacity="0.5"/>
<path d="M12.259 18.1992C12.259 18.1992 14.5364 16.8599 17.6825 14.2096C20.8285 11.5593 21.9249 10.4514 25.181 8.49233C28.4368 6.53359 30.5965 5.68236 29.3148 6.84C28.0326 7.99774 23.4948 11.1145 18.5349 14.887C13.5754 18.6591 8.58208 22.3049 12.259 18.1992Z" fill="#FFE466" fill-opacity="0.5"/>
<path d="M60.4632 44.8847C60.4632 44.8847 62.7407 43.5456 65.8868 40.8953C69.0329 38.245 70.1292 37.1371 73.3853 35.178C76.641 33.2191 78.8008 32.3678 77.519 33.5255C76.2369 34.6835 71.6991 37.8002 66.7392 41.5724C61.7797 45.3448 56.7864 48.9906 60.4632 44.8847Z" fill="#FFE466" fill-opacity="0.5"/>
<path d="M10.2637 22.2834C10.4926 23.1395 9.98646 24.0194 9.13315 24.2485C8.27984 24.4777 7.40252 23.9694 7.17359 23.1132C6.94466 22.2571 7.45082 21.3772 8.30413 21.1481C9.15744 20.9189 10.0348 21.4272 10.2637 22.2834Z" fill="#FFE466" fill-opacity="0.5"/>
<path d="M7.01914 16.3424C7.13361 16.7704 6.88053 17.2104 6.45387 17.3249C6.02722 17.4395 5.58855 17.1854 5.47409 16.7573C5.35962 16.3292 5.6127 15.8893 6.03936 15.7747C6.46601 15.6601 6.90468 15.9143 7.01914 16.3424Z" fill="#FFE466" fill-opacity="0.5"/>
<path d="M5.16131 21.1613C5.27578 21.5894 5.0227 22.0293 4.59604 22.1439C4.16939 22.2584 3.73072 22.0043 3.61626 21.5762C3.5018 21.1481 3.75488 20.7082 4.18153 20.5936C4.60819 20.479 5.04685 20.7332 5.16131 21.1613Z" fill="#FFE466" fill-opacity="0.5"/>
<path d="M12.6058 24.2298C12.6859 24.5295 12.5088 24.8374 12.2101 24.9176C11.9115 24.9978 11.6044 24.8199 11.5243 24.5203C11.4441 24.2206 11.6213 23.9127 11.92 23.8325C12.2186 23.7523 12.5257 23.9301 12.6058 24.2298Z" fill="#FFE466" fill-opacity="0.5"/>
<path d="M9.15006 28.6471C9.23018 28.9467 9.05303 29.2547 8.75437 29.3349C8.45571 29.4151 8.14865 29.2372 8.06852 28.9375C7.9884 28.6379 8.16555 28.3299 8.46421 28.2497C8.76287 28.1695 9.06993 28.3474 9.15006 28.6471Z" fill="#FFE466" fill-opacity="0.5"/>
<path d="M1.57932 30.6802C1.65944 30.9799 1.48228 31.2878 1.18363 31.368C0.884967 31.4483 0.577902 31.2704 0.497778 30.9707C0.417653 30.671 0.594809 30.3631 0.893468 30.2829C1.19213 30.2027 1.49919 30.3806 1.57932 30.6802Z" fill="#FFE466" fill-opacity="0.5"/>
<path d="M7.66904 30.5402C7.86363 31.268 7.43339 32.0158 6.70808 32.2106C5.98276 32.4054 5.23703 31.9733 5.04245 31.2456C4.84786 30.5179 5.27809 29.77 6.00341 29.5752C6.72872 29.3804 7.47445 29.8125 7.66904 30.5402Z" fill="#FFE466" fill-opacity="0.5"/>
<path d="M40.3754 2.98131C40.57 3.70905 40.1398 4.45691 39.4144 4.65169C38.6891 4.84648 37.9434 4.41443 37.7488 3.68669C37.5542 2.95895 37.9845 2.21109 38.7098 2.0163C39.4351 1.82152 40.1808 2.25356 40.3754 2.98131Z" fill="#FFE466" fill-opacity="0.5"/>
<path d="M45.9899 49.9907C46.1845 50.7184 45.7542 51.4663 45.0289 51.6611C44.3036 51.8559 43.5579 51.4238 43.3633 50.6961C43.1687 49.9683 43.5989 49.2205 44.3243 49.0257C45.0496 48.8309 45.7953 49.2629 45.9899 49.9907Z" fill="#FFE466" fill-opacity="0.5"/>
<path d="M76.4897 42.049C76.8788 43.5045 76.0184 45.0002 74.5677 45.3898C73.1171 45.7794 71.6257 44.9153 71.2365 43.4598C70.8473 42.0043 71.7078 40.5086 73.1584 40.119C74.609 39.7295 76.1005 40.5936 76.4897 42.049Z" fill="#FFE466" fill-opacity="0.5"/>
<path d="M75.9942 27.8097C76.1659 28.4519 75.7863 29.1117 75.1463 29.2836C74.5063 29.4555 73.8484 29.0743 73.6767 28.4321C73.505 27.79 73.8846 27.1301 74.5246 26.9583C75.1646 26.7864 75.8225 27.1676 75.9942 27.8097Z" fill="#FFE466" fill-opacity="0.5"/>
<path d="M80.4975 34.742C80.6005 35.1272 80.3727 35.5231 79.9887 35.6263C79.6047 35.7294 79.2099 35.5007 79.1069 35.1154C79.0039 34.7301 79.2317 34.3342 79.6156 34.2311C79.9996 34.1279 80.3944 34.3567 80.4975 34.742Z" fill="#FFE466" fill-opacity="0.5"/>
<path d="M78.2628 28.862C78.3201 29.0761 78.1935 29.296 77.9802 29.3533C77.7669 29.4106 77.5475 29.2835 77.4903 29.0695C77.4331 28.8554 77.5596 28.6355 77.7729 28.5782C77.9863 28.5209 78.2056 28.648 78.2628 28.862Z" fill="#FFE466" fill-opacity="0.5"/>
<path d="M43.5767 0.70926C43.6683 1.05173 43.4658 1.40366 43.1245 1.49532C42.7832 1.58699 42.4322 1.38367 42.3407 1.0412C42.2491 0.698738 42.4515 0.346805 42.7929 0.255141C43.1342 0.163477 43.4851 0.366793 43.5767 0.70926Z" fill="#FFE466" fill-opacity="0.5"/>
<path d="M74.862 8.09214C75.0681 8.86269 74.6125 9.65454 73.8446 9.86078C73.0766 10.067 72.287 9.60957 72.0809 8.83902C71.8749 8.06846 72.3305 7.27662 73.0984 7.07037C73.8664 6.86413 74.656 7.32159 74.862 8.09214Z" fill="#FFE466" fill-opacity="0.5"/>
<path d="M35.0356 1.59069C35.1386 1.97596 34.9109 2.37189 34.5269 2.47501C34.1429 2.57813 33.7481 2.3494 33.6451 1.96413C33.542 1.57885 33.7698 1.18293 34.1538 1.0798C34.5378 0.976682 34.9326 1.20541 35.0356 1.59069Z" fill="#FFE466" fill-opacity="0.5"/>
<path d="M59.7714 4.91708C59.8744 5.30235 59.6467 5.69828 59.2627 5.8014C58.8787 5.90452 58.4839 5.67579 58.3809 5.29051C58.2779 4.90524 58.5056 4.50932 58.8896 4.40619C59.2736 4.30307 59.6684 4.5318 59.7714 4.91708Z" fill="#FFE466" fill-opacity="0.5"/>
<path d="M71.9621 18.9233C72.0651 19.3086 71.8374 19.7045 71.4534 19.8076C71.0694 19.9107 70.6746 19.682 70.5716 19.2967C70.4686 18.9115 70.6963 18.5155 71.0803 18.4124C71.4643 18.3093 71.8591 18.538 71.9621 18.9233Z" fill="#FFE466" fill-opacity="0.5"/>
<path d="M30.0232 46.6355C30.1262 47.0208 29.8984 47.4167 29.5144 47.5198C29.1304 47.6229 28.7356 47.3942 28.6326 47.0089C28.5296 46.6237 28.7574 46.2277 29.1414 46.1246C29.5254 46.0215 29.9202 46.2502 30.0232 46.6355Z" fill="#FFE466" fill-opacity="0.5"/>
<path d="M68.3292 35.6837C68.3864 35.8977 68.2599 36.1177 68.0466 36.1749C67.8332 36.2322 67.6139 36.1052 67.5567 35.8911C67.4994 35.6771 67.626 35.4571 67.8393 35.3998C68.0526 35.3425 68.272 35.4696 68.3292 35.6837Z" fill="#FFE466" fill-opacity="0.5"/>
<path d="M65.0733 35.8934C65.1076 36.0218 65.0317 36.1538 64.9037 36.1882C64.7757 36.2226 64.6441 36.1463 64.6097 36.0179C64.5754 35.8895 64.6513 35.7575 64.7793 35.7231C64.9073 35.6887 65.0389 35.765 65.0733 35.8934Z" fill="#FFE466" fill-opacity="0.5"/>
<path d="M59.569 46.5903L58.7758 39.1369C58.6684 38.1678 58.3137 37.2425 57.7455 36.4501C57.1773 35.6577 56.4149 35.0247 55.5314 34.6121V29.1987C55.5308 28.6661 55.319 28.1554 54.9423 27.7788C54.5657 27.4022 54.0551 27.1903 53.5224 27.1897H47.0204C48.2663 25.8354 49.2159 24.236 49.8084 22.4937C49.9232 22.5022 50.0381 22.5106 50.1495 22.5106C50.6531 22.5264 51.1539 22.4287 51.6147 22.2247C52.0754 22.0206 52.4844 21.7155 52.8112 21.3319C53.2068 20.855 53.4744 20.2851 53.5887 19.6761C53.703 19.067 53.6603 18.4389 53.4646 17.851C53.3581 17.5375 53.1863 17.2502 52.9606 17.008C52.7348 16.7659 52.4603 16.5743 52.155 16.4461C51.7901 16.3063 51.3984 16.2502 51.0089 16.2818C51.5154 14.6273 52.2251 11.5556 51.5249 8.995C52.2267 8.14458 52.7023 7.13067 52.9076 6.04735C52.9259 5.92089 52.9076 5.79184 52.855 5.67543C52.8023 5.55902 52.7175 5.46009 52.6104 5.39031C52.5034 5.32054 52.3787 5.28283 52.2509 5.28163C52.1231 5.28043 51.9977 5.31579 51.8894 5.38355C51.4963 5.62899 51.0442 5.76388 50.5809 5.77402C51.1948 4.80345 51.6123 3.72187 51.8097 2.59055C51.8286 2.46583 51.812 2.33831 51.7616 2.22265C51.7112 2.107 51.6292 2.00792 51.525 1.9368C51.4209 1.86569 51.2987 1.82544 51.1727 1.82068C51.0466 1.81592 50.9218 1.84685 50.8125 1.90991C48.807 3.06868 46.7367 2.74635 44.116 2.33827C42.3469 2.02238 40.5553 1.84905 38.7585 1.81995C33.7395 1.81995 32.2312 4.75267 31.8721 5.712C27.982 8.03797 29.2196 13.7771 29.9894 16.2815C29.6002 16.2503 29.209 16.3067 28.8444 16.4464C28.5392 16.5746 28.2647 16.7661 28.0389 17.0082C27.8132 17.2503 27.6414 17.5376 27.5348 17.851C27.3393 18.439 27.2968 19.0671 27.4113 19.6761C27.5257 20.2852 27.7934 20.855 28.1891 21.3319C28.5157 21.7155 28.9244 22.0207 29.3851 22.2247C29.8457 22.4288 30.3464 22.5265 30.85 22.5106C30.9618 22.5106 31.0766 22.5022 31.1915 22.4937C31.7839 24.236 32.7335 25.8354 33.9795 27.1897H27.4774C26.9448 27.1903 26.4341 27.4022 26.0575 27.7788C25.6809 28.1554 25.469 28.6661 25.4684 29.1987V34.6121C24.5849 35.0246 23.8224 35.6576 23.2542 36.45C22.686 37.2424 22.3313 38.1677 22.2241 39.1369L21.4305 46.5903C21.4212 46.6778 21.4293 46.7662 21.4542 46.8506C21.4791 46.935 21.5204 47.0137 21.5757 47.0821C21.631 47.1505 21.6992 47.2074 21.7765 47.2494C21.8538 47.2915 21.9387 47.3179 22.0262 47.3272C22.0499 47.3298 22.0738 47.331 22.0977 47.331C22.263 47.3307 22.4223 47.2694 22.5451 47.1588C22.6679 47.0482 22.7455 46.8962 22.7631 46.7319L23.5566 39.2785C23.6264 38.6479 23.8337 38.0402 24.1641 37.4985C24.4944 36.9567 24.9397 36.4941 25.4684 36.1433V45.3239C25.469 45.8565 25.6809 46.3672 26.0575 46.7438C26.4341 47.1204 26.9448 47.3323 27.4774 47.3329H53.5224C54.0551 47.3323 54.5657 47.1204 54.9423 46.7438C55.319 46.3672 55.5308 45.8565 55.5314 45.3239V36.1433C56.0601 36.4941 56.5054 36.9568 56.8357 37.4985C57.166 38.0402 57.3734 38.6479 57.4432 39.2785L58.2368 46.7319C58.2543 46.8962 58.332 47.0482 58.4548 47.1588C58.5775 47.2694 58.7369 47.3307 58.9021 47.331C58.926 47.331 58.9499 47.3298 58.9737 47.3272C59.0612 47.3179 59.146 47.2915 59.2233 47.2494C59.3005 47.2074 59.3688 47.1505 59.424 47.0821C59.4793 47.0136 59.5206 46.935 59.5454 46.8506C59.5703 46.7662 59.5783 46.6777 59.569 46.5903ZM50.2796 10.1247C50.3145 10.1013 50.3451 10.0753 50.3792 10.0516C50.7134 12.1834 50.1089 14.6476 49.6947 15.9852L48.9034 15.187C48.2864 14.5624 47.8903 13.7533 47.7757 12.8828L47.549 11.1345C48.5243 11.0105 49.4583 10.6651 50.2796 10.1247ZM51.6578 17.6906C51.7908 17.7504 51.9094 17.8382 52.0054 17.9481C52.1014 18.058 52.1726 18.1873 52.214 18.3272C52.3247 18.6921 52.3436 19.0787 52.269 19.4527C52.1944 19.8267 52.0286 20.1764 51.7864 20.471C51.5904 20.6976 51.3467 20.8779 51.0726 20.9989C50.7985 21.1199 50.501 21.1786 50.2015 21.1707C50.468 20.0317 50.6136 18.8678 50.636 17.6982C50.968 17.5919 51.3246 17.5892 51.6581 17.6906H51.6578ZM32.7422 6.75899C32.8239 6.71474 32.8957 6.65425 32.9532 6.58124C33.0106 6.50824 33.0526 6.42426 33.0764 6.33445C33.1105 6.20468 33.9722 3.15979 38.7585 3.15979C40.4863 3.18992 42.209 3.358 43.91 3.66242C46.1629 4.01308 48.1661 4.32545 50.1357 3.67582C49.8756 4.45489 49.4409 5.16419 48.8648 5.74952C48.7831 5.82622 48.722 5.92217 48.6871 6.02858C48.6521 6.13499 48.6444 6.24848 48.6646 6.35865C48.6848 6.46882 48.7324 6.57216 48.8028 6.65922C48.8733 6.74628 48.9645 6.81428 49.068 6.85699C49.7447 7.10372 50.4736 7.17163 51.1842 7.05414C50.8207 7.84443 50.2497 8.52139 49.532 9.01299C48.1129 9.96696 46.1299 10.1365 43.6386 9.51716C43.5305 9.49022 43.4174 9.49066 43.3096 9.51843C43.2017 9.5462 43.1024 9.60043 43.0208 9.67622C42.9392 9.752 42.8777 9.84694 42.842 9.95245C42.8063 10.058 42.7975 10.1707 42.8163 10.2805C42.8966 10.7235 43.039 11.1529 43.2393 11.556C41.7802 11.1964 40.3972 10.5788 39.1555 9.7323C39.0486 9.65257 38.9203 9.60656 38.7871 9.60016C38.6539 9.59376 38.5218 9.62726 38.4078 9.69637C38.2937 9.76549 38.2029 9.86707 38.1469 9.98811C38.0909 10.1091 38.0724 10.2441 38.0936 10.3758C38.1646 10.7902 38.2662 11.1987 38.3975 11.5981C37.0437 11.3248 35.76 10.7777 34.6253 9.99031C34.5325 9.91604 34.4216 9.86779 34.304 9.85052C34.1864 9.83325 34.0663 9.84758 33.9561 9.89204C33.8458 9.9365 33.7494 10.0095 33.6767 10.1035C33.604 10.1975 33.5576 10.3092 33.5423 10.4271L33.2242 12.8836C33.1095 13.7541 32.7135 14.5632 32.0964 15.1878L31.3055 15.9855C30.6234 13.7825 29.4209 8.52912 32.7422 6.75899ZM29.215 20.4706C28.9727 20.1761 28.8069 19.8263 28.7323 19.4523C28.6577 19.0784 28.6766 18.6917 28.7874 18.3268C28.8284 18.1878 28.8987 18.0591 28.9937 17.9495C29.0887 17.84 29.206 17.7521 29.3379 17.6917C29.6729 17.5883 30.0317 17.5907 30.3653 17.6986C30.3881 18.8673 30.5337 20.0303 30.7998 21.1684C30.5005 21.1764 30.2031 21.118 29.9291 20.9973C29.6551 20.8767 29.4112 20.6968 29.215 20.4706ZM32.3077 21.6424V21.6359C32.3039 21.6171 32.2966 21.6003 32.2917 21.5823C31.9069 20.2531 31.7071 18.8772 31.6979 17.4934L33.0481 16.1318C33.8714 15.298 34.3996 14.218 34.5525 13.0563L34.7351 11.6479C36.1667 12.4301 37.7352 12.9302 39.3553 13.121C39.4734 13.1355 39.5932 13.1183 39.7024 13.0711C39.8117 13.024 39.9064 12.9487 39.9769 12.8529C40.0474 12.757 40.0911 12.6442 40.1036 12.5258C40.1161 12.4075 40.0968 12.288 40.0478 12.1796C40.0455 12.175 39.9636 11.992 39.8564 11.7111C41.3296 12.4791 42.9337 12.9639 44.5857 13.1405C44.7212 13.1534 44.8575 13.1247 44.9764 13.0582C45.0952 12.9918 45.191 12.8906 45.2509 12.7683C45.3108 12.6461 45.332 12.5084 45.3117 12.3738C45.2915 12.2391 45.2306 12.1138 45.1373 12.0146C44.8843 11.7241 44.6669 11.4044 44.49 11.0622C45.0583 11.1577 45.633 11.2104 46.2092 11.2199L46.4473 13.0555C46.6001 14.2171 47.1284 15.297 47.9518 16.1306L49.3019 17.4934C49.2936 18.8775 49.0946 20.2537 48.7105 21.5834C48.7055 21.6014 48.6982 21.6182 48.6944 21.637V21.6435C48.0524 23.8 46.8023 25.7257 45.0937 27.1897H35.9062C34.1982 25.7251 32.9489 23.799 32.3077 21.6424ZM54.1916 45.3239C54.1914 45.5013 54.1208 45.6714 53.9954 45.7969C53.8699 45.9223 53.6998 45.9929 53.5224 45.9931H27.4774C27.3 45.9929 27.1299 45.9223 27.0045 45.7969C26.879 45.6714 26.8085 45.5013 26.8083 45.3239V29.1987C26.8085 29.0213 26.879 28.8512 27.0045 28.7258C27.1299 28.6003 27.3 28.5297 27.4774 28.5295H53.5224C53.6998 28.5297 53.8699 28.6003 53.9954 28.7258C54.1208 28.8512 54.1914 29.0213 54.1916 29.1987V45.3239Z" fill="black"/>
<path d="M43.5548 23.8588C43.4682 23.7043 43.3241 23.5902 43.1538 23.5414C42.9836 23.4926 42.8009 23.513 42.6456 23.5981C41.9731 23.9057 41.2392 24.0557 40.4999 24.0368C39.7623 24.0556 39.03 23.9064 38.3585 23.6004C38.2819 23.5571 38.1975 23.5293 38.1102 23.5185C38.0228 23.5078 37.9342 23.5144 37.8494 23.5379C37.7646 23.5614 37.6853 23.6014 37.616 23.6556C37.5466 23.7098 37.4886 23.7771 37.4453 23.8537C37.4019 23.9302 37.3741 24.0146 37.3634 24.102C37.3527 24.1893 37.3593 24.2779 37.3828 24.3627C37.4063 24.4475 37.4463 24.5268 37.5004 24.5962C37.5546 24.6655 37.6219 24.7235 37.6985 24.7669C38.5701 25.1914 39.5308 25.4005 40.4999 25.3767C41.469 25.4006 42.4296 25.1914 43.301 24.7669C43.4549 24.6799 43.568 24.5355 43.6156 24.3653C43.6631 24.1951 43.6413 24.013 43.5548 23.8588Z" fill="black"/>
<path d="M40.5002 34.2553C39.9058 34.2553 39.3248 34.4315 38.8307 34.7617C38.3365 35.0919 37.9513 35.5613 37.7239 36.1104C37.4964 36.6595 37.4369 37.2637 37.5529 37.8466C37.6688 38.4295 37.955 38.965 38.3753 39.3853C38.7956 39.8055 39.331 40.0917 39.9139 40.2077C40.4969 40.3236 41.1011 40.2641 41.6502 40.0367C42.1993 39.8092 42.6686 39.4241 42.9988 38.9299C43.329 38.4357 43.5053 37.8547 43.5053 37.2604C43.5043 36.4637 43.1873 35.6999 42.624 35.1366C42.0606 34.5732 41.2969 34.2563 40.5002 34.2553ZM40.5002 38.9256C40.1708 38.9256 39.8489 38.8279 39.575 38.6449C39.3011 38.4619 39.0877 38.2018 38.9617 37.8975C38.8357 37.5932 38.8027 37.2584 38.867 36.9353C38.9313 36.6123 39.0899 36.3156 39.3228 36.0827C39.5558 35.8499 39.8525 35.6913 40.1756 35.6271C40.4986 35.5629 40.8334 35.5959 41.1377 35.722C41.442 35.8481 41.702 36.0616 41.885 36.3355C42.0679 36.6094 42.1655 36.9314 42.1654 37.2607C42.1647 37.7021 41.989 38.1252 41.6769 38.4372C41.3647 38.7492 40.9416 38.9247 40.5002 38.9252V38.9256Z" fill="black"/>
<path d="M39.6193 19.5908L39.7808 18.251H41.216L41.3779 19.5908C41.4314 20.032 41.6445 20.4384 41.977 20.7332C42.3095 21.0281 42.7385 21.1911 43.1829 21.1914H45.4438C45.8842 21.1902 46.3093 21.0296 46.6406 20.7394C46.9719 20.4491 47.187 20.0488 47.246 19.6123L47.47 17.9248C47.504 17.6682 47.4828 17.4072 47.4078 17.1593C47.3328 16.9115 47.2057 16.6825 47.0351 16.4877C46.8645 16.293 46.6542 16.1369 46.4184 16.03C46.1826 15.923 45.9266 15.8677 45.6677 15.8676H42.9804C42.7232 15.8678 42.4691 15.9225 42.2346 16.0281C42.0002 16.1337 41.7908 16.2877 41.6202 16.4801C41.5086 16.6101 41.4162 16.7554 41.3457 16.9115H39.6537C39.5833 16.7554 39.4908 16.6101 39.3792 16.4801C39.2086 16.2877 38.9992 16.1336 38.7647 16.028C38.5301 15.9224 38.2759 15.8678 38.0187 15.8676H35.3318C35.0728 15.8677 34.8168 15.923 34.581 16.03C34.3451 16.1369 34.1348 16.2931 33.9642 16.4879C33.7936 16.6827 33.6665 16.9117 33.5915 17.1596C33.5166 17.4075 33.4954 17.6685 33.5295 17.9252L33.7534 19.6123C33.8125 20.0488 34.0275 20.4491 34.3588 20.7394C34.6901 21.0296 35.1153 21.1902 35.5557 21.1914H37.8166C38.2606 21.1905 38.689 21.0273 39.021 20.7325C39.3531 20.4377 39.5658 20.0316 39.6193 19.5908ZM42.9792 17.2075H45.6677C45.7358 17.2075 45.8031 17.2221 45.8652 17.2503C45.9272 17.2785 45.9825 17.3195 46.0274 17.3707C46.0723 17.422 46.1057 17.4822 46.1255 17.5474C46.1452 17.6126 46.1509 17.6812 46.142 17.7488L45.9181 19.4362C45.9025 19.551 45.846 19.6563 45.7589 19.7326C45.6718 19.809 45.56 19.8512 45.4441 19.8515H43.184C43.0671 19.8515 42.9542 19.8086 42.8667 19.731C42.7792 19.6535 42.7231 19.5465 42.7089 19.4305L42.5057 17.7434C42.4975 17.6762 42.5037 17.6081 42.5238 17.5435C42.5439 17.4788 42.5775 17.4192 42.6224 17.3686C42.6672 17.3179 42.7224 17.2774 42.7841 17.2496C42.8458 17.2218 42.9127 17.2074 42.9804 17.2075H42.9792ZM35.0806 19.4358L34.8567 17.7488C34.8477 17.6811 34.8534 17.6124 34.8731 17.5471C34.8929 17.4819 34.9264 17.4216 34.9714 17.3703C35.0164 17.3191 35.0718 17.278 35.134 17.2499C35.1961 17.2218 35.2636 17.2074 35.3318 17.2075H38.0199C38.0876 17.2074 38.1545 17.2217 38.2163 17.2495C38.278 17.2772 38.3332 17.3178 38.3781 17.3684C38.423 17.4191 38.4567 17.4787 38.4768 17.5434C38.4969 17.608 38.5031 17.6762 38.4949 17.7434L38.2913 19.4305C38.2772 19.5465 38.2211 19.6533 38.1337 19.7309C38.0463 19.8085 37.9335 19.8514 37.8166 19.8515H35.5546C35.4387 19.8512 35.3268 19.8089 35.2397 19.7325C35.1526 19.656 35.0961 19.5507 35.0806 19.4358Z" fill="black"/>
</svg>
