<svg width="81" height="53" viewBox="0 0 81 53" fill="none" xmlns="http://www.w3.org/2000/svg">
<path d="M62.5896 21.3669C64.0598 19.9843 65.8199 18.8076 67.712 17.6647C69.01 16.8803 70.7691 15.73 70.5264 14.6192C70.3635 13.8754 69.0139 13.1494 67.7112 13.7311C67.6213 13.7712 67.5391 13.8205 67.4616 13.8727C67.4455 13.0825 68.0375 12.2277 69.0146 11.5959C69.3298 11.3923 69.409 11.0934 69.1806 10.9245C68.7208 10.5846 68.2609 10.2444 67.801 9.90423C67.6244 9.77385 67.4794 9.51282 67.1411 9.57705C66.744 9.65229 66.3516 9.76859 65.9713 9.90239C64.9406 10.2652 64.0302 10.8235 63.3698 11.4685C63.0958 11.7361 62.5867 11.8427 62.2759 11.6915C61.3158 11.2245 60.0589 11.0196 58.7049 11.0694C57.8504 11.1009 56.9619 11.2556 56.1097 11.506C55.9197 11.5621 55.7296 11.6257 55.545 11.6944C55.2893 11.7894 55.1685 11.8586 54.9372 11.7871C54.5035 11.6529 54.3112 11.3321 54.2289 11.0183C53.8959 9.74337 55.6728 8.30424 54.987 7.07612C54.6382 6.45138 53.8096 5.98612 53.1773 5.51021C52.4241 4.94353 51.6708 4.37659 50.9172 3.81C50.8899 3.78938 50.8382 3.80168 50.8035 3.82163C47.4673 5.74289 44.1239 7.67164 40.8543 9.6543C40.7092 9.54688 40.5641 9.43945 40.419 9.33203C40.3356 9.27032 40.2667 9.14722 40.1069 9.17736C39.9189 9.21294 39.7337 9.268 39.5539 9.3312C39.0662 9.50289 38.636 9.76669 38.3237 10.0717C38.1941 10.1984 37.9534 10.2486 37.8064 10.1771C37.3527 9.9564 36.758 9.85953 36.1179 9.88318C35.7137 9.89802 35.2939 9.97111 34.8909 10.0895C34.801 10.116 34.7112 10.1459 34.6238 10.1785C34.5032 10.2234 34.4458 10.2561 34.3366 10.2223C34.1313 10.159 34.0404 10.0072 34.0015 9.85878C33.8443 9.25606 34.6844 8.57556 34.3601 7.99483C34.1952 7.69948 33.8035 7.47942 33.5043 7.25449C33.148 6.98657 32.7921 6.71855 32.4358 6.45039C32.423 6.4408 32.3984 6.4466 32.3819 6.45608C28.6958 8.57883 24.9886 10.7206 21.7618 13.1626C20.4795 14.133 19.2842 15.1505 18.2189 16.2131C18.2167 16.2155 18.2157 16.2176 18.2147 16.2198C16.9324 16.8335 15.8443 17.6511 15.1133 18.5621C15.0985 18.5807 15.1153 18.6066 15.1505 18.5944C15.3908 18.5131 15.5842 18.5748 15.7003 18.6847C15.82 18.7979 15.7899 18.95 15.6972 19.0995C15.5006 19.4168 14.9955 19.7085 14.6307 19.9579C13.7881 20.5342 12.8983 21.0806 11.9735 21.5954C11.9556 21.6055 11.9458 21.6191 11.9549 21.631C12.1389 21.8706 12.2654 22.1305 12.3342 22.4085C12.3643 22.5285 12.5551 22.5773 12.7477 22.5189C13.0729 22.4204 13.4014 22.3344 13.7316 22.2606C14.0693 22.1853 14.2455 22.4268 13.9835 22.6076C13.8648 22.6893 13.7462 22.7712 13.6272 22.8532C13.6148 22.8618 13.6087 22.876 13.6168 22.8839L14.0898 23.3427C14.1925 23.4426 14.4157 23.438 14.5862 23.3326C15.376 22.8429 16.1663 22.3533 16.9564 21.8635C17.1816 21.724 17.407 21.5841 17.6325 21.4445C17.8376 21.3173 18.0384 21.1785 18.2597 21.0645C18.4963 20.9427 19.0367 20.739 19.1992 20.9216C19.2513 20.9805 19.1068 21.063 19.0412 21.1168C18.9432 21.1974 18.8443 21.2775 18.7449 21.3574C18.5633 21.5041 18.3785 21.6496 18.1923 21.7941C17.8204 22.0835 17.4389 22.368 17.0512 22.6488C16.3219 23.1766 15.5636 23.6879 14.7822 24.1826C14.6908 24.2404 14.6288 24.3446 14.6457 24.4138C14.6752 24.5358 14.7047 24.658 14.7342 24.78C14.7464 24.8302 14.7602 24.839 14.6769 24.8606C14.6226 24.8749 14.5691 24.8927 14.5162 24.9107C14.4239 24.9418 14.3364 24.9802 14.2506 25.0206C13.8918 25.1899 13.6136 25.4389 13.4613 25.697C13.1527 26.2204 13.5533 26.7192 14.2407 26.834C14.2527 26.8358 14.269 26.8304 14.2791 26.8237C15.181 26.2128 16.1854 25.6775 17.2609 25.2303C17.8063 25.0034 18.3697 24.8039 18.9416 24.629C19.0079 24.6089 19.0746 24.5891 19.1414 24.5695C19.198 24.553 19.1859 24.5938 19.1924 24.6179C19.2089 24.6768 19.2052 24.74 19.1945 24.8036C19.171 24.9422 19.0775 25.0855 18.9742 25.2189C18.8206 25.4169 18.6272 25.6073 18.4435 25.7982C16.773 26.8622 15.3482 28.0966 14.2827 29.4248C14.2509 29.4642 14.2864 29.5186 14.3611 29.4932C14.8689 29.3211 15.2783 29.4516 15.5241 29.6839C15.7769 29.9234 15.7133 30.245 15.5172 30.5612C15.1017 31.2323 14.0328 31.8494 13.2614 32.3767C11.4798 33.5954 9.59774 34.7509 7.64172 35.8399C7.60382 35.861 7.58307 35.89 7.60246 35.9151C7.99128 36.4218 8.25941 36.9716 8.40508 37.5593C8.46825 37.8133 8.8722 37.9162 9.27943 37.793C9.96711 37.5846 10.6614 37.4024 11.36 37.2467C12.0743 37.0874 12.4475 37.598 11.893 37.9801C11.6417 38.1535 11.3907 38.3266 11.1393 38.4998C11.1132 38.5177 11.0999 38.5479 11.1175 38.565L12.1173 39.5355C12.3349 39.7467 12.8072 39.7367 13.1675 39.5135C14.8382 38.4779 16.5093 37.4425 18.1799 36.4069C18.6567 36.1115 19.1335 35.816 19.6098 35.5207C20.0438 35.2516 20.4684 34.9579 20.9364 34.7172C21.4372 34.4595 22.5799 34.0286 22.9231 34.4148C23.034 34.5394 22.7279 34.7137 22.5893 34.8275C22.3823 34.9978 22.1731 35.1674 21.963 35.3364C21.5785 35.6468 21.188 35.9542 20.7944 36.2601C20.0076 36.8719 19.201 37.4737 18.3805 38.0677C16.8383 39.1838 15.2345 40.265 13.5824 41.311C13.3885 41.4339 13.258 41.6537 13.2937 41.8004C13.3556 42.0584 13.4182 42.3165 13.4806 42.5748C13.5062 42.681 13.5357 42.6994 13.3595 42.7454C13.2444 42.7753 13.1315 42.8136 13.0193 42.8514C12.8247 42.917 12.6391 42.9985 12.4577 43.084C11.699 43.4415 11.1104 43.9685 10.7888 44.5141C10.136 45.6212 10.9829 46.6759 12.4371 46.9183C12.4624 46.9227 12.4969 46.9108 12.5176 46.8967C14.4255 45.6053 16.55 44.4728 18.8242 43.527C19.9776 43.0472 21.1688 42.6256 22.3785 42.2555C22.519 42.2127 22.6599 42.1711 22.8009 42.1298C22.9209 42.0946 22.8949 42.1809 22.9093 42.2319C22.9439 42.3567 22.9362 42.4906 22.9135 42.625C22.864 42.918 22.6663 43.2208 22.4476 43.5028C21.6181 44.5725 20.2369 45.5357 20.0654 46.6933C19.8797 47.9454 21.3312 48.7433 22.6953 49.2393C23.2991 49.4589 23.9531 49.6308 24.6226 49.7792C24.7472 49.807 24.9228 49.8655 25.0952 49.9033C25.2684 49.9412 25.4776 49.9212 25.6701 49.8519C26.0403 49.7192 26.4105 49.5863 26.7808 49.4536C27.225 49.2941 27.6697 49.1347 28.1139 48.9752C28.3538 48.8893 28.9489 49.4556 29.0836 49.5506C29.1515 49.5989 29.4505 49.731 29.3414 49.8322C29.179 49.9831 29.0166 50.1337 28.8542 50.2843C28.6307 50.4918 28.4071 50.6993 28.1838 50.9064C27.9881 51.0881 27.9636 51.3486 28.1441 51.4761C29.0576 52.1211 30.703 52.1501 32.2129 51.8146C34.5545 51.2941 36.5546 49.8831 38.3869 48.74C40.394 47.4879 42.4006 46.2359 44.4076 44.9838C44.7105 44.8376 45.0198 44.6973 45.3358 44.5659C45.8812 44.3393 46.4446 44.1398 47.0165 43.9649C47.0827 43.9444 47.1495 43.9249 47.2164 43.9054C47.2728 43.8886 47.2608 43.9294 47.2673 43.9537C47.2838 44.0126 47.2802 44.0759 47.2695 44.1394C47.246 44.278 47.1525 44.4213 47.0491 44.5545C46.6567 45.0604 46.0038 45.5158 45.9225 46.063C45.835 46.6551 46.5214 47.0324 47.1664 47.2669C47.4518 47.3708 47.761 47.4522 48.0774 47.5224C48.1363 47.5353 48.2193 47.5631 48.3013 47.581C48.3829 47.599 48.4817 47.5895 48.5731 47.5567C48.7479 47.4938 48.9231 47.4311 49.0979 47.3684C49.3081 47.293 49.5183 47.2174 49.7285 47.1421C49.842 47.1015 50.1234 47.3693 50.1869 47.4143C50.2191 47.437 50.3605 47.4994 50.3087 47.5473C50.232 47.6185 50.1553 47.69 50.0785 47.7612C49.973 47.8593 49.8669 47.9572 49.7613 48.0553C49.6687 48.1411 49.6573 48.2642 49.7427 48.3246C50.1746 48.6297 50.9525 48.6433 51.6665 48.4845C52.7737 48.2386 53.7195 47.5715 54.5859 47.0309C56.6377 45.7508 58.6899 44.4706 60.7417 43.1906L64.2478 41.003C64.8337 40.6376 65.4209 40.2725 66.0058 39.9062C66.3049 39.7189 66.5991 39.5241 66.8347 39.3065C66.9978 39.1557 66.9011 38.9804 66.6552 38.9818C66.6493 38.9818 66.6433 38.9818 66.6378 38.9817C66.3698 38.9817 66.2874 38.7774 66.4954 38.6268C67.7322 37.7303 68.969 36.8339 70.2059 35.9377C70.3173 35.857 70.353 35.7494 70.2946 35.6717C69.9905 35.267 69.6863 34.8622 69.3822 34.4576C69.3736 34.446 69.3506 34.4461 69.3313 34.4539C68.997 34.5908 68.6537 34.7043 68.2969 34.7969C68.2673 34.8046 68.1728 34.8257 68.1429 34.8324C68.0359 34.8572 67.7502 34.9477 67.7389 34.8555C67.7164 34.6749 67.6125 34.5144 67.4549 34.3856C67.3324 34.2856 67.096 34.3076 66.9345 34.4332C66.6035 34.6906 66.1945 34.8989 65.7418 35.0402C65.5975 35.0851 65.5891 34.9412 65.5563 34.8779C65.5134 34.7944 65.4226 34.7067 65.5152 34.6057C65.6763 34.4296 65.8496 34.2575 66.0298 34.0877C66.7251 33.4341 67.5572 32.8776 68.4518 32.3372C69.0656 31.9663 69.8975 31.4224 69.7824 30.8973C69.7054 30.5456 69.0677 30.2021 68.4517 30.4772C68.4089 30.4964 68.37 30.5196 68.3335 30.5444C68.3257 30.1706 68.606 29.7663 69.0677 29.4678C69.2169 29.3715 69.2543 29.2302 69.1463 29.1504C68.9287 28.9895 68.7115 28.8288 68.494 28.6679C68.4106 28.6062 68.3419 28.4827 68.1818 28.5132C67.9942 28.5487 67.8086 28.6038 67.6288 28.667C67.1415 28.8386 66.7109 29.1025 66.3986 29.4076C66.269 29.5342 66.0287 29.5844 65.8813 29.513C65.8208 29.4834 65.7569 29.4564 65.6917 29.4313C67.6013 28.0473 69.5112 26.6632 71.4212 25.2791C71.6569 25.108 71.7332 24.881 71.6092 24.7163C70.9659 23.8605 70.3226 23.0048 69.6793 22.1488C69.6614 22.1246 69.6123 22.1245 69.5723 22.1411C68.8647 22.4304 68.1384 22.6704 67.3845 22.8665C67.3215 22.8826 67.1217 22.9273 67.0583 22.9419C66.8319 22.9939 66.228 23.1854 66.204 22.9903C66.1565 22.6084 65.937 22.2688 65.6038 21.9966C65.3449 21.785 64.8444 21.8319 64.5029 22.0974C63.803 22.6418 62.9376 23.0826 61.9802 23.3809C61.6752 23.4762 61.657 23.1715 61.588 23.0375C61.4972 22.8609 61.306 22.6759 61.5014 22.4622C61.8417 22.09 62.2082 21.7256 62.5896 21.3669Z" fill="#FFE466" fill-opacity="0.5"/>
<path d="M11.9113 18.1992C11.9113 18.1992 14.1887 16.8599 17.3348 14.2096C20.4809 11.5593 21.5772 10.4514 24.8333 8.49233C28.0891 6.53359 30.2489 5.68236 28.9671 6.84C27.685 7.99774 23.1471 11.1145 18.1873 14.887C13.2278 18.6591 8.23442 22.3049 11.9113 18.1992Z" fill="#FFE466" fill-opacity="0.5"/>
<path d="M60.1156 44.8847C60.1156 44.8847 62.393 43.5456 65.5391 40.8953C68.6852 38.245 69.7816 37.1371 73.0376 35.178C76.2934 33.2191 78.4531 32.3678 77.1713 33.5255C75.8893 34.6835 71.3514 37.8002 66.3915 41.5724C61.4321 45.3448 56.4387 48.9906 60.1156 44.8847Z" fill="#FFE466" fill-opacity="0.5"/>
<path d="M9.91604 22.2834C10.145 23.1395 9.63881 24.0194 8.7855 24.2485C7.93219 24.4777 7.05486 23.9694 6.82593 23.1132C6.597 22.2571 7.10316 21.3772 7.95647 21.1481C8.80978 20.9189 9.68711 21.4272 9.91604 22.2834Z" fill="#FFE466" fill-opacity="0.5"/>
<path d="M6.67149 16.3424C6.78595 16.7704 6.53287 17.2104 6.10621 17.3249C5.67956 17.4395 5.2409 17.1854 5.12643 16.7573C5.01197 16.3292 5.26505 15.8893 5.6917 15.7747C6.11836 15.6601 6.55702 15.9143 6.67149 16.3424Z" fill="#FFE466" fill-opacity="0.5"/>
<path d="M4.81366 21.1613C4.92812 21.5894 4.67504 22.0293 4.24839 22.1439C3.82173 22.2584 3.38307 22.0043 3.2686 21.5762C3.15414 21.1481 3.40722 20.7082 3.83388 20.5936C4.26053 20.479 4.69919 20.7332 4.81366 21.1613Z" fill="#FFE466" fill-opacity="0.5"/>
<path d="M12.2581 24.2298C12.3383 24.5295 12.1611 24.8374 11.8625 24.9176C11.5638 24.9978 11.2567 24.8199 11.1766 24.5203C11.0965 24.2206 11.2736 23.9127 11.5723 23.8325C11.871 23.7523 12.178 23.9301 12.2581 24.2298Z" fill="#FFE466" fill-opacity="0.5"/>
<path d="M8.8024 28.6471C8.88253 28.9467 8.70537 29.2547 8.40671 29.3349C8.10805 29.4151 7.80099 29.2372 7.72086 28.9375C7.64074 28.6379 7.8179 28.3299 8.11655 28.2497C8.41521 28.1695 8.72228 28.3474 8.8024 28.6471Z" fill="#FFE466" fill-opacity="0.5"/>
<path d="M1.23166 30.6802C1.31178 30.9799 1.13463 31.2878 0.835969 31.368C0.537311 31.4483 0.230246 31.2704 0.150121 30.9707C0.0699966 30.671 0.247153 30.3631 0.545811 30.2829C0.84447 30.2027 1.15153 30.3806 1.23166 30.6802Z" fill="#FFE466" fill-opacity="0.5"/>
<path d="M7.32138 30.5402C7.51597 31.268 7.08573 32.0158 6.36042 32.2106C5.63511 32.4054 4.88938 31.9733 4.69479 31.2456C4.5002 30.5179 4.93044 29.77 5.65575 29.5752C6.38107 29.3804 7.12679 29.8125 7.32138 30.5402Z" fill="#FFE466" fill-opacity="0.5"/>
<path d="M40.0277 2.98131C40.2223 3.70905 39.7921 4.45691 39.0668 4.65169C38.3415 4.84648 37.5957 4.41443 37.4012 3.68669C37.2066 2.95895 37.6368 2.21109 38.3621 2.0163C39.0874 1.82152 39.8332 2.25356 40.0277 2.98131Z" fill="#FFE466" fill-opacity="0.5"/>
<path d="M45.6422 49.9907C45.8368 50.7184 45.4066 51.4663 44.6813 51.6611C43.956 51.8559 43.2102 51.4238 43.0156 50.6961C42.8211 49.9683 43.2513 49.2205 43.9766 49.0257C44.7019 48.8309 45.4476 49.2629 45.6422 49.9907Z" fill="#FFE466" fill-opacity="0.5"/>
<path d="M76.142 42.049C76.5312 43.5045 75.6707 45.0002 74.2201 45.3898C72.7695 45.7794 71.278 44.9153 70.8888 43.4598C70.4997 42.0043 71.3601 40.5086 72.8108 40.119C74.2614 39.7295 75.7528 40.5936 76.142 42.049Z" fill="#FFE466" fill-opacity="0.5"/>
<path d="M75.6466 27.8097C75.8183 28.4519 75.4387 29.1117 74.7987 29.2836C74.1587 29.4555 73.5007 29.0743 73.329 28.4321C73.1573 27.79 73.5369 27.1301 74.1769 26.9583C74.8169 26.7864 75.4749 27.1676 75.6466 27.8097Z" fill="#FFE466" fill-opacity="0.5"/>
<path d="M80.1498 34.742C80.2528 35.1272 80.025 35.5231 79.6411 35.6263C79.2571 35.7294 78.8623 35.5007 78.7592 35.1154C78.6562 34.7301 78.884 34.3342 79.268 34.2311C79.652 34.1279 80.0468 34.3567 80.1498 34.742Z" fill="#FFE466" fill-opacity="0.5"/>
<path d="M77.9152 28.862C77.9724 29.0761 77.8459 29.296 77.6325 29.3533C77.4192 29.4106 77.1999 29.2835 77.1427 29.0695C77.0854 28.8554 77.212 28.6355 77.4253 28.5782C77.6386 28.5209 77.8579 28.648 77.9152 28.862Z" fill="#FFE466" fill-opacity="0.5"/>
<path d="M43.229 0.70926C43.3206 1.05173 43.1182 1.40366 42.7768 1.49532C42.4355 1.58699 42.0846 1.38367 41.993 1.0412C41.9014 0.698738 42.1039 0.346805 42.4452 0.255141C42.7865 0.163477 43.1375 0.366793 43.229 0.70926Z" fill="#FFE466" fill-opacity="0.5"/>
<path d="M74.5144 8.09214C74.7204 8.86269 74.2649 9.65454 73.4969 9.86078C72.7289 10.067 71.9393 9.60957 71.7333 8.83901C71.5273 8.06846 71.9828 7.27662 72.7508 7.07037C73.5188 6.86413 74.3084 7.32159 74.5144 8.09214Z" fill="#FFE466" fill-opacity="0.5"/>
<path d="M34.6879 1.59069C34.791 1.97596 34.5632 2.37189 34.1792 2.47501C33.7952 2.57813 33.4004 2.3494 33.2974 1.96413C33.1944 1.57885 33.4222 1.18293 33.8061 1.0798C34.1901 0.976682 34.5849 1.20541 34.6879 1.59069Z" fill="#FFE466" fill-opacity="0.5"/>
<path d="M59.4238 4.91708C59.5268 5.30235 59.299 5.69828 58.915 5.8014C58.531 5.90452 58.1362 5.67579 58.0332 5.29051C57.9302 4.90524 58.158 4.50932 58.542 4.40619C58.9259 4.30307 59.3207 4.5318 59.4238 4.91708Z" fill="#FFE466" fill-opacity="0.5"/>
<path d="M71.6145 18.9233C71.7175 19.3086 71.4897 19.7045 71.1057 19.8076C70.7217 19.9107 70.3269 19.682 70.2239 19.2967C70.1209 18.9115 70.3487 18.5155 70.7327 18.4124C71.1166 18.3093 71.5114 18.538 71.6145 18.9233Z" fill="#FFE466" fill-opacity="0.5"/>
<path d="M29.6755 46.6355C29.7785 47.0208 29.5508 47.4167 29.1668 47.5198C28.7828 47.6229 28.388 47.3942 28.285 47.0089C28.182 46.6237 28.4097 46.2277 28.7937 46.1246C29.1777 46.0215 29.5725 46.2502 29.6755 46.6355Z" fill="#FFE466" fill-opacity="0.5"/>
<path d="M67.9815 35.6837C68.0388 35.8977 67.9122 36.1177 67.6989 36.1749C67.4856 36.2322 67.2662 36.1052 67.209 35.8911C67.1518 35.6771 67.2783 35.4571 67.4916 35.3998C67.705 35.3425 67.9243 35.4696 67.9815 35.6837Z" fill="#FFE466" fill-opacity="0.5"/>
<path d="M64.7256 35.8934C64.7599 36.0218 64.684 36.1538 64.556 36.1882C64.428 36.2226 64.2964 36.1463 64.2621 36.0179C64.2277 35.8895 64.3037 35.7575 64.4317 35.7231C64.5597 35.6887 64.6913 35.765 64.7256 35.8934Z" fill="#FFE466" fill-opacity="0.5"/>
<g clip-path="url(#clip0_302_548)">
<path d="M56.6592 35.4235V32.5442C56.658 31.5914 56.279 30.678 55.6053 30.0043C54.9316 29.3306 54.0182 28.9516 53.0654 28.9504H47.015C47.6803 27.7232 48.2169 26.4305 48.6164 25.0929L51.3476 22.9072C51.7722 22.5683 52.0825 22.1073 52.2368 21.5864C52.3911 21.0655 52.3819 20.5099 52.2105 19.9944C52.039 19.4789 51.7136 19.0284 51.2781 18.7037C50.8426 18.379 50.318 18.1957 49.775 18.1785L51.3764 13.7755C51.785 12.6518 51.9167 11.4462 51.7604 10.2608C51.6041 9.07535 51.1644 7.94509 50.4784 6.96573C49.7925 5.98637 48.8807 5.18677 47.8201 4.63469C46.7595 4.0826 45.5815 3.79429 44.3858 3.79419H38.2836C33.7176 3.79305 29.2434 5.07625 25.372 7.49719C25.2557 7.56924 25.1623 7.673 25.103 7.79627C25.0436 7.91954 25.0206 8.05719 25.0368 8.19306C25.0529 8.32893 25.1075 8.45737 25.1941 8.56328C25.2808 8.66919 25.3958 8.74817 25.5258 8.79094L27.2587 9.36594C27.4972 9.4455 27.717 9.57296 27.9044 9.74049C28.0919 9.90801 28.2432 10.1121 28.349 10.3402C28.4548 10.5683 28.5129 10.8156 28.5197 11.0669C28.5265 11.3182 28.4819 11.5683 28.3886 11.8018C28.2164 12.2322 28.1373 12.6942 28.1565 13.1574C28.1757 13.6206 28.2927 14.0745 28.5 14.4892L30.3529 18.1915C29.8228 18.2337 29.3177 18.4343 28.9031 18.7672C28.4885 19.1002 28.1836 19.5501 28.0279 20.0586C27.8723 20.5671 27.8732 21.1106 28.0304 21.6186C28.1877 22.1266 28.494 22.5755 28.9097 22.9072L31.6409 25.0929C32.0399 26.4304 32.5761 27.7231 33.2409 28.9504H27.1904C26.2377 28.9516 25.3242 29.3306 24.6505 30.0043C23.9768 30.678 23.5978 31.5914 23.5967 32.5442V35.4235C21.8956 36.1341 20.4423 37.3315 19.4193 38.8652C18.3963 40.3989 17.8492 42.2006 17.8467 44.0442V47.6379C17.8467 47.8286 17.9224 48.0114 18.0572 48.1462C18.192 48.281 18.3748 48.3567 18.5654 48.3567H61.6904C61.8811 48.3567 62.0639 48.281 62.1987 48.1462C62.3335 48.0114 62.4092 47.8286 62.4092 47.6379V44.0442C62.4066 42.2006 61.8595 40.3989 60.8365 38.8652C59.8136 37.3315 58.3603 36.1341 56.6592 35.4235V35.4235ZM45.8779 18.1692H41.5654C41.3748 18.1692 41.192 18.2449 41.0572 18.3797C40.9224 18.5145 40.8467 18.6973 40.8467 18.8879V19.6067H39.4092V18.8879C39.4092 18.6973 39.3335 18.5145 39.1987 18.3797C39.0639 18.2449 38.8811 18.1692 38.6904 18.1692H32.2217V17.1162L36.7081 14.1255C37.6735 13.4805 38.8088 13.1368 39.9698 13.1379C41.6309 13.136 43.2422 12.5707 44.5403 11.5344L45.7148 10.595L46.9474 12.4451C47.6571 13.507 48.0354 14.7558 48.0342 16.0331V18.1692H45.8779ZM45.1592 19.6067V21.7629C45.1592 21.9536 45.0835 22.1364 44.9487 22.2712C44.8139 22.406 44.6311 22.4817 44.4404 22.4817H43.0029C42.8123 22.4817 42.6295 22.406 42.4947 22.2712C42.3599 22.1364 42.2842 21.9536 42.2842 21.7629V19.6067H45.1592ZM37.9717 19.6067V21.7629C37.9717 21.9536 37.896 22.1364 37.7612 22.2712C37.6264 22.406 37.4436 22.4817 37.2529 22.4817H35.8154C35.6248 22.4817 35.442 22.406 35.3072 22.2712C35.1724 22.1364 35.0967 21.9536 35.0967 21.7629V19.6067H37.9717ZM50.9092 20.8286C50.9096 21.0119 50.8685 21.193 50.7891 21.3583C50.7097 21.5236 50.594 21.6688 50.4506 21.7831L49.1475 22.8253C49.3375 21.7625 49.442 20.6862 49.4602 19.6067H49.6873C49.8478 19.6067 50.0067 19.6383 50.1549 19.6997C50.3031 19.7611 50.4378 19.8511 50.5513 19.9646C50.6648 20.078 50.7548 20.2127 50.8162 20.361C50.8776 20.5092 50.9092 20.6681 50.9092 20.8286V20.8286ZM29.7226 12.3358C29.8886 11.9205 29.9681 11.4757 29.9561 11.0286C29.9441 10.5815 29.8409 10.1416 29.6528 9.73586C29.4646 9.33009 29.1956 8.96704 28.8622 8.66897C28.5287 8.3709 28.1379 8.14409 27.7137 8.00247L27.4937 7.9306C30.8139 6.158 34.5199 5.23103 38.2836 5.23169H44.3858C45.3501 5.23187 46.3002 5.46443 47.1556 5.90967C48.011 6.35492 48.7466 6.99973 49.2999 7.78952C49.8533 8.57931 50.2081 9.49081 50.3345 10.4468C50.4609 11.4029 50.355 12.3753 50.0258 13.2817L49.4012 14.9995C49.2451 13.7994 48.8147 12.6514 48.1434 11.6444L46.4759 9.14241C46.4206 9.05954 46.3486 8.98908 46.2646 8.9355C46.1806 8.88192 46.0864 8.8464 45.9879 8.83119C45.8895 8.81633 45.789 8.82186 45.6928 8.84746C45.5966 8.87305 45.5067 8.91816 45.4287 8.97997L43.6426 10.4124C42.5991 11.2445 41.3045 11.6985 39.9698 11.7004C38.5248 11.6991 37.1119 12.1269 35.9103 12.9295L31.104 16.1337C31.0595 16.1639 31.0185 16.1991 30.9818 16.2386L29.7858 13.8459C29.6693 13.6129 29.6034 13.3579 29.5925 13.0976C29.5816 12.8374 29.6259 12.5777 29.7226 12.3358V12.3358ZM29.806 21.7845C29.6076 21.6266 29.4632 21.4108 29.393 21.1672C29.3227 20.9235 29.33 20.6641 29.4138 20.4247C29.4976 20.1854 29.6538 19.9781 29.8607 19.8315C30.0676 19.6849 30.315 19.6064 30.5686 19.6067H30.7942C30.8123 20.6867 30.9169 21.7634 31.1069 22.8267L29.806 21.7845ZM32.2332 19.6067H33.6592V21.7629C33.6592 22.3348 33.8864 22.8833 34.2907 23.2876C34.6951 23.692 35.2436 23.9192 35.8154 23.9192H37.2529C37.8248 23.9192 38.3733 23.692 38.7776 23.2876C39.182 22.8833 39.4092 22.3348 39.4092 21.7629V21.0442H40.8467V21.7629C40.8467 22.3348 41.0739 22.8833 41.4782 23.2876C41.8826 23.692 42.4311 23.9192 43.0029 23.9192H44.4404C45.0123 23.9192 45.5608 23.692 45.9651 23.2876C46.3695 22.8833 46.5967 22.3348 46.5967 21.7629V19.6067H48.0227C47.9669 22.9011 47.0471 26.1231 45.3554 28.9504H34.9005C33.2087 26.1231 32.289 22.9011 32.2332 19.6067V19.6067ZM27.1904 30.3879H53.0654C53.6373 30.3879 54.1858 30.6151 54.5901 31.0195C54.9945 31.4239 55.2217 31.9723 55.2217 32.5442V46.9192H25.0342V32.5442C25.0342 31.9723 25.2614 31.4239 25.6657 31.0195C26.0701 30.6151 26.6186 30.3879 27.1904 30.3879V30.3879ZM19.2842 44.0442C19.2861 42.5878 19.6897 41.1602 20.4506 39.9184C21.2114 38.6765 22.3 37.6686 23.5967 37.0055V46.9192H19.2842V44.0442ZM60.9717 46.9192H56.6592V37.0055C57.9558 37.6687 59.0443 38.6766 59.8052 39.9184C60.566 41.1602 60.9696 42.5878 60.9717 44.0442V46.9192Z" fill="black"/>
<path d="M40.1279 44.7629C40.6966 44.7629 41.2524 44.5943 41.7252 44.2784C42.198 43.9625 42.5665 43.5135 42.7841 42.9882C43.0017 42.4628 43.0586 41.8848 42.9477 41.3271C42.8368 40.7694 42.5629 40.2571 42.1609 39.855C41.7588 39.4529 41.2465 39.1791 40.6888 39.0682C40.1311 38.9573 39.5531 39.0142 39.0277 39.2318C38.5024 39.4494 38.0534 39.8179 37.7375 40.2907C37.4215 40.7635 37.2529 41.3193 37.2529 41.8879C37.2529 42.6504 37.5558 43.3817 38.095 43.9209C38.6342 44.46 39.3654 44.7629 40.1279 44.7629ZM40.1279 40.4504C40.4122 40.4504 40.6902 40.5347 40.9266 40.6927C41.163 40.8507 41.3472 41.0752 41.456 41.3378C41.5648 41.6005 41.5933 41.8895 41.5378 42.1684C41.4823 42.4472 41.3454 42.7034 41.1444 42.9044C40.9434 43.1054 40.6872 43.2424 40.4084 43.2978C40.1295 43.3533 39.8405 43.3248 39.5778 43.216C39.3152 43.1072 39.0906 42.923 38.9327 42.6866C38.7747 42.4502 38.6904 42.1723 38.6904 41.8879C38.6904 41.5067 38.8419 41.1411 39.1115 40.8715C39.381 40.6019 39.7467 40.4504 40.1279 40.4504V40.4504Z" fill="black"/>
<path d="M35.3071 38.0836L36.3234 37.0673L33.9566 34.7004L36.3234 32.3336L35.3071 31.3173L32.4321 34.1923C32.2974 34.3271 32.2217 34.5099 32.2217 34.7004C32.2217 34.891 32.2974 35.0738 32.4321 35.2086L35.3071 38.0836Z" fill="black"/>
<path d="M44.9489 38.0836L47.8239 35.2086C47.9587 35.0738 48.0344 34.891 48.0344 34.7004C48.0344 34.5099 47.9587 34.3271 47.8239 34.1923L44.9489 31.3173L43.9326 32.3336L46.2995 34.7004L43.9326 37.0673L44.9489 38.0836Z" fill="black"/>
<path d="M41.7101 31.3942L37.3965 37.1433L38.5463 38.0061L42.8599 32.2569L41.7101 31.3942Z" fill="black"/>
</g>
<defs>
<clipPath id="clip0_302_548">
<rect width="46" height="46" fill="white" transform="translate(17.1279 3.07544)"/>
</clipPath>
</defs>
</svg>
