<svg width="81" height="53" viewBox="0 0 81 53" fill="none" xmlns="http://www.w3.org/2000/svg">
<path d="M62.5896 21.8338C64.0598 20.4513 65.8199 19.2746 67.712 18.1316C69.01 17.3473 70.7691 16.197 70.5264 15.0862C70.3635 14.3424 69.0139 13.6164 67.7112 14.1981C67.6213 14.2382 67.5391 14.2874 67.4616 14.3397C67.4455 13.5495 68.0375 12.6947 69.0146 12.0629C69.3298 11.8592 69.409 11.5603 69.1806 11.3915C68.7208 11.0515 68.2609 10.7114 67.801 10.3712C67.6244 10.2408 67.4794 9.9798 67.1411 10.044C66.744 10.1193 66.3516 10.2356 65.9713 10.3694C64.9406 10.7322 64.0302 11.2905 63.3698 11.9355C63.0958 12.2031 62.5867 12.3097 62.2759 12.1584C61.3158 11.6915 60.0589 11.4866 58.7049 11.5364C57.8504 11.5678 56.9619 11.7226 56.1097 11.973C55.9197 12.0291 55.7296 12.0927 55.545 12.1614C55.2893 12.2564 55.1685 12.3256 54.9372 12.2541C54.5035 12.1199 54.3112 11.7991 54.2289 11.4853C53.8959 10.2103 55.6728 8.77122 54.987 7.5431C54.6382 6.91836 53.8096 6.4531 53.1773 5.97719C52.4241 5.41051 51.6708 4.84357 50.9172 4.27698C50.8899 4.25636 50.8382 4.26866 50.8035 4.28861C47.4673 6.20987 44.1239 8.13862 40.8543 10.1213C40.7092 10.0139 40.5641 9.90643 40.419 9.79901C40.3356 9.7373 40.2667 9.6142 40.1069 9.64434C39.9189 9.67992 39.7337 9.73498 39.5539 9.79818C39.0662 9.96988 38.636 10.2337 38.3237 10.5387C38.1941 10.6654 37.9534 10.7156 37.8064 10.6441C37.3527 10.4234 36.758 10.3265 36.1179 10.3502C35.7137 10.365 35.2939 10.4381 34.8909 10.5564C34.801 10.583 34.7113 10.6129 34.6238 10.6455C34.5032 10.6904 34.4458 10.7231 34.3366 10.6893C34.1313 10.626 34.0404 10.4742 34.0015 10.3258C33.8443 9.72304 34.6844 9.04254 34.3601 8.46181C34.1952 8.16646 33.8035 7.9464 33.5043 7.72147C33.148 7.45355 32.7921 7.18553 32.4358 6.91737C32.423 6.90778 32.3984 6.91358 32.3819 6.92306C28.6958 9.04581 24.9886 11.1875 21.7618 13.6295C20.4795 14.6 19.2842 15.6175 18.2189 16.68C18.2167 16.6825 18.2157 16.6846 18.2147 16.6867C16.9324 17.3005 15.8443 18.1181 15.1133 19.0291C15.0985 19.0477 15.1153 19.0735 15.1505 19.0614C15.3908 18.9801 15.5842 19.0418 15.7003 19.1517C15.82 19.2649 15.7899 19.417 15.6972 19.5665C15.5006 19.8838 14.9955 20.1754 14.6307 20.4249C13.7881 21.0012 12.8983 21.5476 11.9735 22.0624C11.9556 22.0725 11.9458 22.086 11.9549 22.098C12.1389 22.3376 12.2654 22.5975 12.3342 22.8755C12.3643 22.9955 12.5551 23.0443 12.7477 22.9859C13.0729 22.8874 13.4014 22.8013 13.7316 22.7276C14.0693 22.6523 14.2455 22.8938 13.9835 23.0746C13.8648 23.1562 13.7462 23.2381 13.6272 23.3201C13.6148 23.3288 13.6087 23.3429 13.6168 23.3509L14.0898 23.8097C14.1925 23.9096 14.4157 23.905 14.5862 23.7996C15.376 23.3099 16.1663 22.8203 16.9564 22.3305C17.1816 22.191 17.407 22.0511 17.6325 21.9115C17.8376 21.7843 18.0384 21.6455 18.2597 21.5315C18.4963 21.4097 19.0367 21.2059 19.1992 21.3886C19.2513 21.4475 19.1068 21.53 19.0412 21.5838C18.9432 21.6644 18.8443 21.7445 18.7449 21.8244C18.5633 21.9711 18.3785 22.1166 18.1923 22.2611C17.8204 22.5504 17.4389 22.835 17.0512 23.1158C16.3219 23.6436 15.5636 24.1549 14.7822 24.6496C14.6908 24.7074 14.6288 24.8116 14.6457 24.8808C14.6752 25.0028 14.7047 25.125 14.7342 25.247C14.7464 25.2972 14.7602 25.306 14.6769 25.3276C14.6226 25.3419 14.5691 25.3597 14.5162 25.3777C14.4239 25.4088 14.3364 25.4472 14.2506 25.4876C13.8918 25.6569 13.6136 25.9059 13.4613 26.164C13.1527 26.6874 13.5533 27.1861 14.2407 27.301C14.2527 27.3028 14.269 27.2974 14.2791 27.2907C15.181 26.6798 16.1854 26.1444 17.2609 25.6972C17.8063 25.4704 18.3697 25.2709 18.9416 25.096C19.0079 25.0758 19.0746 25.056 19.1414 25.0365C19.198 25.02 19.1859 25.0608 19.1924 25.0848C19.2089 25.1437 19.2052 25.207 19.1945 25.2706C19.171 25.4092 19.0775 25.5525 18.9742 25.6859C18.8206 25.8839 18.6272 26.0743 18.4435 26.2652C16.773 27.3292 15.3482 28.5636 14.2827 29.8918C14.2509 29.9312 14.2864 29.9855 14.3611 29.9601C14.8689 29.7881 15.2783 29.9185 15.5241 30.1509C15.7769 30.3904 15.7133 30.712 15.5172 31.0282C15.1017 31.6993 14.0328 32.3164 13.2614 32.8437C11.4798 34.0624 9.59774 35.2178 7.64172 36.3069C7.60382 36.328 7.58307 36.357 7.60246 36.3821C7.99128 36.8888 8.25941 37.4386 8.40508 38.0263C8.46825 38.2803 8.8722 38.3831 9.27943 38.2599C9.96711 38.0516 10.6614 37.8694 11.36 37.7137C12.0743 37.5544 12.4475 38.065 11.893 38.4471C11.6417 38.6205 11.3907 38.7936 11.1393 38.9667C11.1132 38.9847 11.0999 39.0149 11.1175 39.0319L12.1173 40.0025C12.3349 40.2137 12.8072 40.2037 13.1675 39.9805C14.8382 38.9449 16.5093 37.9095 18.1799 36.8739C18.6567 36.5785 19.1335 36.283 19.6098 35.9877C20.0438 35.7186 20.4684 35.4249 20.9364 35.1842C21.4372 34.9265 22.5799 34.4956 22.9231 34.8817C23.034 35.0063 22.7279 35.1806 22.5893 35.2945C22.3823 35.4648 22.1731 35.6344 21.963 35.8034C21.5785 36.1138 21.188 36.4212 20.7944 36.727C20.0076 37.3389 19.201 37.9407 18.3806 38.5347C16.8383 39.6508 15.2345 40.732 13.5824 41.778C13.3885 41.9009 13.258 42.1207 13.2937 42.2673C13.3556 42.5254 13.4182 42.7835 13.4806 43.0417C13.5062 43.148 13.5357 43.1664 13.3595 43.2124C13.2444 43.2422 13.1315 43.2805 13.0193 43.3184C12.8247 43.384 12.6391 43.4655 12.4577 43.5509C11.699 43.9085 11.1104 44.4355 10.7888 44.981C10.136 46.0882 10.9829 47.1429 12.4371 47.3853C12.4624 47.3897 12.4969 47.3778 12.5176 47.3637C14.4255 46.0723 16.55 44.9398 18.8242 43.994C19.9776 43.5141 21.1688 43.0926 22.3785 42.7224C22.519 42.6796 22.6599 42.6381 22.8009 42.5968C22.9209 42.5616 22.8949 42.6479 22.9093 42.6989C22.9439 42.8237 22.9362 42.9576 22.9135 43.0919C22.864 43.385 22.6663 43.6877 22.4476 43.9698C21.6181 45.0395 20.2369 46.0027 20.0654 47.1602C19.8797 48.4124 21.3312 49.2102 22.6953 49.7063C23.2991 49.9258 23.9531 50.0978 24.6226 50.2462C24.7472 50.274 24.9228 50.3325 25.0952 50.3703C25.2684 50.4082 25.4776 50.3882 25.6701 50.3189C26.0403 50.1862 26.4105 50.0533 26.7808 49.9206C27.225 49.7611 27.6697 49.6017 28.1139 49.4422C28.3538 49.3563 28.9489 49.9225 29.0836 50.0176C29.1515 50.0659 29.4505 50.198 29.3414 50.2992C29.179 50.45 29.0166 50.6007 28.8542 50.7513C28.6307 50.9588 28.4071 51.1663 28.1838 51.3734C27.9881 51.5551 27.9636 51.8156 28.1441 51.943C29.0576 52.5881 30.703 52.617 32.2129 52.2816C34.5545 51.761 36.5546 50.3501 38.3869 49.2069C40.394 47.9549 42.4006 46.7029 44.4076 45.4508C44.7105 45.3045 45.0198 45.1643 45.3358 45.0328C45.8812 44.8062 46.4446 44.6068 47.0165 44.4319C47.0827 44.4114 47.1495 44.3919 47.2164 44.3723C47.2728 44.3556 47.2608 44.3963 47.2673 44.4207C47.2838 44.4796 47.2802 44.5429 47.2695 44.6064C47.246 44.745 47.1525 44.8883 47.0491 45.0215C46.6567 45.5274 46.0038 45.9828 45.9225 46.53C45.835 47.1221 46.5214 47.4994 47.1664 47.7339C47.4518 47.8377 47.761 47.9192 48.0774 47.9894C48.1363 48.0023 48.2193 48.0301 48.3013 48.048C48.3829 48.066 48.4817 48.0565 48.5731 48.0237C48.7479 47.9608 48.9231 47.898 49.0979 47.8354C49.3081 47.76 49.5183 47.6844 49.7285 47.6091C49.842 47.5685 50.1234 47.8363 50.1869 47.8812C50.2191 47.904 50.3605 47.9664 50.3088 48.0143C50.232 48.0855 50.1553 48.157 50.0785 48.2281C49.9729 48.3262 49.8669 48.4242 49.7613 48.5223C49.6687 48.6081 49.6573 48.7312 49.7427 48.7916C50.1746 49.0967 50.9525 49.1103 51.6665 48.9515C52.7737 48.7056 53.7195 48.0385 54.5859 47.4978C56.6377 46.2178 58.6899 44.9376 60.7417 43.6576L64.2478 41.47C64.8337 41.1045 65.4209 40.7395 66.0058 40.3732C66.3049 40.1859 66.5991 39.9911 66.8347 39.7734C66.9978 39.6226 66.9011 39.4474 66.6552 39.4487C66.6493 39.4487 66.6433 39.4487 66.6378 39.4486C66.3698 39.4487 66.2874 39.2443 66.4954 39.0937C67.7322 38.1973 68.969 37.3009 70.2059 36.4047C70.3173 36.3239 70.353 36.2164 70.2946 36.1386C69.9905 35.734 69.6863 35.3292 69.3822 34.9245C69.3736 34.913 69.3506 34.9131 69.3313 34.9209C68.997 35.0578 68.6537 35.1713 68.2969 35.2639C68.2673 35.2716 68.1728 35.2927 68.1429 35.2994C68.0359 35.3242 67.7502 35.4147 67.7389 35.3224C67.7164 35.1419 67.6125 34.9814 67.4549 34.8525C67.3324 34.7526 67.096 34.7746 66.9345 34.9002C66.6035 35.1576 66.1945 35.3659 65.7418 35.5072C65.5975 35.5521 65.5891 35.4082 65.5563 35.3449C65.5134 35.2614 65.4226 35.1737 65.5152 35.0727C65.6763 34.8966 65.8496 34.7244 66.0298 34.5547C66.7251 33.9011 67.5572 33.3446 68.4518 32.8041C69.0656 32.4333 69.8975 31.8894 69.7824 31.3643C69.7054 31.0126 69.0677 30.6691 68.4517 30.9442C68.4089 30.9634 68.37 30.9866 68.3335 31.0113C68.3257 30.6376 68.606 30.2333 69.0677 29.9347C69.2169 29.8385 69.2543 29.6972 69.1463 29.6174C68.9287 29.4565 68.7115 29.2957 68.494 29.1348C68.4106 29.0731 68.3419 28.9497 68.1818 28.9802C67.9942 29.0157 67.8086 29.0708 67.6288 29.134C67.1415 29.3056 66.7109 29.5695 66.3986 29.8746C66.269 30.0012 66.0287 30.0514 65.8813 29.9799C65.8208 29.9504 65.7569 29.9234 65.6917 29.8983C67.6013 28.5143 69.5112 27.1302 71.4212 25.7461C71.6569 25.575 71.7332 25.348 71.6092 25.1833C70.9659 24.3275 70.3226 23.4718 69.6793 22.6158C69.6614 22.5916 69.6123 22.5915 69.5723 22.6081C68.8647 22.8974 68.1384 23.1374 67.3845 23.3335C67.3215 23.3496 67.1217 23.3942 67.0583 23.4089C66.8319 23.4609 66.228 23.6523 66.204 23.4573C66.1564 23.0753 65.937 22.7358 65.6038 22.4636C65.3449 22.252 64.8444 22.2989 64.5029 22.5644C63.803 23.1087 62.9376 23.5496 61.9802 23.8479C61.6752 23.9432 61.657 23.6385 61.588 23.5045C61.4972 23.3279 61.306 23.1429 61.5014 22.9291C61.8417 22.5569 62.2082 22.1926 62.5896 21.8338Z" fill="#FFE466" fill-opacity="0.5"/>
<path d="M11.9113 18.6662C11.9113 18.6662 14.1887 17.3269 17.3348 14.6766C20.4809 12.0262 21.5772 10.9184 24.8333 8.95931C28.0891 7.00057 30.2489 6.14934 28.9671 7.30698C27.685 8.46472 23.1471 11.5814 18.1873 15.3539C13.2278 19.1261 8.23442 22.7718 11.9113 18.6662Z" fill="#FFE466" fill-opacity="0.5"/>
<path d="M60.1156 45.3517C60.1156 45.3517 62.393 44.0126 65.5391 41.3623C68.6852 38.712 69.7816 37.6041 73.0377 35.645C76.2934 33.686 78.4531 32.8348 77.1713 33.9925C75.8893 35.1504 71.3514 38.2672 66.3915 42.0394C61.4321 45.8118 56.4387 49.4576 60.1156 45.3517Z" fill="#FFE466" fill-opacity="0.5"/>
<path d="M9.91604 22.7504C10.145 23.6065 9.63881 24.4864 8.7855 24.7155C7.93219 24.9447 7.05486 24.4364 6.82593 23.5802C6.597 22.7241 7.10316 21.8442 7.95647 21.6151C8.80978 21.3859 9.68711 21.8942 9.91604 22.7504Z" fill="#FFE466" fill-opacity="0.5"/>
<path d="M6.67149 16.8093C6.78595 17.2374 6.53287 17.6773 6.10621 17.7919C5.67956 17.9065 5.2409 17.6523 5.12643 17.2243C5.01197 16.7962 5.26505 16.3563 5.6917 16.2417C6.11836 16.1271 6.55702 16.3812 6.67149 16.8093Z" fill="#FFE466" fill-opacity="0.5"/>
<path d="M4.81366 21.6283C4.92812 22.0563 4.67504 22.4963 4.24839 22.6108C3.82173 22.7254 3.38307 22.4713 3.2686 22.0432C3.15414 21.6151 3.40722 21.1752 3.83388 21.0606C4.26053 20.946 4.69919 21.2002 4.81366 21.6283Z" fill="#FFE466" fill-opacity="0.5"/>
<path d="M12.2581 24.6968C12.3383 24.9964 12.1611 25.3044 11.8625 25.3846C11.5638 25.4648 11.2567 25.2869 11.1766 24.9872C11.0965 24.6876 11.2736 24.3796 11.5723 24.2994C11.871 24.2192 12.178 24.3971 12.2581 24.6968Z" fill="#FFE466" fill-opacity="0.5"/>
<path d="M8.8024 29.1141C8.88253 29.4137 8.70537 29.7217 8.40671 29.8019C8.10805 29.8821 7.80099 29.7042 7.72086 29.4045C7.64074 29.1049 7.8179 28.7969 8.11655 28.7167C8.41521 28.6365 8.72228 28.8144 8.8024 29.1141Z" fill="#FFE466" fill-opacity="0.5"/>
<path d="M1.23166 31.1472C1.31178 31.4469 1.13463 31.7548 0.835969 31.835C0.537311 31.9152 0.230246 31.7373 0.150121 31.4377C0.0699966 31.138 0.247153 30.8301 0.545812 30.7499C0.84447 30.6697 1.15153 30.8476 1.23166 31.1472Z" fill="#FFE466" fill-opacity="0.5"/>
<path d="M7.32138 31.0072C7.51597 31.7349 7.08573 32.4828 6.36042 32.6776C5.63511 32.8724 4.88938 32.4403 4.69479 31.7126C4.5002 30.9848 4.93044 30.237 5.65575 30.0422C6.38107 29.8474 7.12679 30.2795 7.32138 31.0072Z" fill="#FFE466" fill-opacity="0.5"/>
<path d="M40.0277 3.44829C40.2223 4.17603 39.7921 4.92389 39.0668 5.11867C38.3415 5.31346 37.5957 4.88141 37.4012 4.15367C37.2066 3.42593 37.6368 2.67807 38.3621 2.48328C39.0874 2.2885 39.8332 2.72054 40.0277 3.44829Z" fill="#FFE466" fill-opacity="0.5"/>
<path d="M45.6422 50.4577C45.8368 51.1854 45.4066 51.9333 44.6813 52.1281C43.956 52.3228 43.2102 51.8908 43.0156 51.163C42.8211 50.4353 43.2513 49.6874 43.9766 49.4927C44.7019 49.2979 45.4476 49.7299 45.6422 50.4577Z" fill="#FFE466" fill-opacity="0.5"/>
<path d="M76.142 42.516C76.5312 43.9715 75.6707 45.4672 74.2201 45.8568C72.7695 46.2464 71.278 45.3823 70.8888 43.9268C70.4996 42.4713 71.3601 40.9756 72.8108 40.586C74.2614 40.1964 75.7528 41.0605 76.142 42.516Z" fill="#FFE466" fill-opacity="0.5"/>
<path d="M75.6466 28.2767C75.8183 28.9188 75.4387 29.5787 74.7987 29.7506C74.1587 29.9224 73.5007 29.5412 73.329 28.8991C73.1573 28.257 73.5369 27.5971 74.1769 27.4252C74.8169 27.2534 75.4749 27.6346 75.6466 28.2767Z" fill="#FFE466" fill-opacity="0.5"/>
<path d="M80.1498 35.2089C80.2528 35.5942 80.025 35.9901 79.6411 36.0933C79.2571 36.1964 78.8623 35.9676 78.7592 35.5824C78.6562 35.1971 78.884 34.8012 79.268 34.698C79.652 34.5949 80.0468 34.8237 80.1498 35.2089Z" fill="#FFE466" fill-opacity="0.5"/>
<path d="M77.9152 29.329C77.9724 29.543 77.8459 29.763 77.6325 29.8203C77.4192 29.8776 77.1999 29.7505 77.1427 29.5365C77.0854 29.3224 77.212 29.1025 77.4253 29.0452C77.6386 28.9879 77.8579 29.115 77.9152 29.329Z" fill="#FFE466" fill-opacity="0.5"/>
<path d="M43.229 1.17624C43.3206 1.51871 43.1182 1.87064 42.7768 1.9623C42.4355 2.05397 42.0846 1.85065 41.993 1.50818C41.9014 1.16572 42.1039 0.813785 42.4452 0.722121C42.7865 0.630457 43.1375 0.833773 43.229 1.17624Z" fill="#FFE466" fill-opacity="0.5"/>
<path d="M74.5144 8.55912C74.7204 9.32967 74.2649 10.1215 73.4969 10.3278C72.7289 10.534 71.9393 10.0765 71.7333 9.30599C71.5273 8.53544 71.9828 7.7436 72.7508 7.53735C73.5188 7.33111 74.3083 7.78857 74.5144 8.55912Z" fill="#FFE466" fill-opacity="0.5"/>
<path d="M34.688 2.05767C34.791 2.44294 34.5632 2.83887 34.1792 2.94199C33.7952 3.04511 33.4004 2.81638 33.2974 2.43111C33.1944 2.04583 33.4222 1.64991 33.8061 1.54678C34.1901 1.44366 34.5849 1.67239 34.688 2.05767Z" fill="#FFE466" fill-opacity="0.5"/>
<path d="M59.4238 5.38406C59.5268 5.76933 59.299 6.16526 58.915 6.26838C58.531 6.3715 58.1362 6.14277 58.0332 5.75749C57.9302 5.37222 58.158 4.9763 58.542 4.87317C58.9259 4.77005 59.3207 4.99878 59.4238 5.38406Z" fill="#FFE466" fill-opacity="0.5"/>
<path d="M71.6145 19.3903C71.7175 19.7756 71.4897 20.1715 71.1057 20.2746C70.7217 20.3777 70.3269 20.149 70.2239 19.7637C70.1209 19.3784 70.3487 18.9825 70.7327 18.8794C71.1166 18.7763 71.5115 19.005 71.6145 19.3903Z" fill="#FFE466" fill-opacity="0.5"/>
<path d="M29.6755 47.1025C29.7785 47.4877 29.5508 47.8837 29.1668 47.9868C28.7828 48.0899 28.388 47.8612 28.285 47.4759C28.182 47.0906 28.4097 46.6947 28.7937 46.5916C29.1777 46.4885 29.5725 46.7172 29.6755 47.1025Z" fill="#FFE466" fill-opacity="0.5"/>
<path d="M67.9815 36.1506C68.0388 36.3647 67.9122 36.5846 67.6989 36.6419C67.4856 36.6992 67.2662 36.5721 67.209 36.3581C67.1518 36.1441 67.2783 35.9241 67.4916 35.8668C67.705 35.8095 67.9243 35.9366 67.9815 36.1506Z" fill="#FFE466" fill-opacity="0.5"/>
<path d="M64.7256 36.3604C64.7599 36.4888 64.684 36.6208 64.556 36.6552C64.428 36.6895 64.2964 36.6133 64.2621 36.4849C64.2277 36.3564 64.3037 36.2245 64.4317 36.1901C64.5597 36.1557 64.6913 36.232 64.7256 36.3604Z" fill="#FFE466" fill-opacity="0.5"/>
<g clip-path="url(#clip0_302_1235)">
<path d="M56.3572 47.2241H53.1403L53.4918 34.5263C53.5467 32.5396 52.4088 30.7339 50.5927 29.9263L46.8418 28.2582C46.8191 28.2481 46.7962 28.2398 46.7731 28.2324L46.2435 27.78C48.9196 26.9683 50.9208 25.9748 51.0157 25.9275C51.3397 25.7655 51.4712 25.3702 51.3115 25.0451C51.298 25.0178 49.971 22.2455 49.971 16.1788V13.3606C49.971 7.94679 45.5665 3.54242 40.1527 3.54242C34.7389 3.54242 30.3346 7.94679 30.3346 13.3606V16.1788C30.3346 22.2455 29.0074 25.0178 28.9951 25.043C28.8322 25.3687 28.9642 25.7646 29.2899 25.9275C29.3854 25.9752 31.3863 26.9687 34.0618 27.7802L33.4606 28.2937L29.7895 29.9264C27.9734 30.7339 26.8354 32.5396 26.8904 34.5264L27.2419 47.2241H23.9482C23.5842 47.2241 23.2891 47.5192 23.2891 47.8832C23.2891 48.2473 23.5842 48.5424 23.9482 48.5424H56.3572C56.7212 48.5424 57.0164 48.2473 57.0164 47.8832C57.0164 47.5192 56.7212 47.2241 56.3572 47.2241ZM31.6527 13.3608C31.6529 8.67383 35.4659 4.86078 40.1527 4.86078C44.8396 4.86078 48.6526 8.67383 48.6526 13.3606V16.1788C48.6526 20.9946 49.45 23.8357 49.8744 25.0067C48.9976 25.4033 47.1667 26.1762 45.0423 26.7539L44.8081 26.5539C44.6765 26.4415 44.5062 26.3867 44.3346 26.3985V24.7596C45.5694 23.9597 46.5759 22.8073 47.195 21.405C47.5574 20.5843 47.7612 19.6725 47.7844 18.768C47.8606 15.795 45.31 15.0419 42.6095 14.2447C40.3473 13.5768 37.7832 12.8199 35.6806 10.7746C35.4196 10.5208 35.0023 10.5266 34.7485 10.7874C34.4947 11.0485 34.5004 11.4658 34.7613 11.7196C37.0976 13.992 39.9469 14.8332 42.2363 15.5092C45.1272 16.3626 46.5146 16.8562 46.4664 18.7341C46.4476 19.4684 46.2826 20.2078 45.989 20.8725C44.9682 23.1847 42.6772 24.6788 40.1527 24.6788C37.074 24.6788 34.4359 22.4816 33.8798 19.4545C33.7555 18.7777 33.1289 18.2866 32.454 18.336C32.3802 18.3414 32.3047 18.3349 32.2288 18.317C31.9005 18.2393 31.6528 17.8862 31.6528 17.4956V16.9549C31.6528 16.5547 31.9146 16.207 32.2619 16.1461C32.548 16.0958 32.823 16.2013 32.997 16.4282C33.1232 16.5928 33.2913 16.7104 33.483 16.7683C33.7638 16.8531 34.0735 16.8034 34.3117 16.6353C34.8883 16.2284 35.377 15.7121 35.7643 15.1009C35.9591 14.7934 35.8679 14.3862 35.5604 14.1912C35.2528 13.9964 34.8456 14.0877 34.6507 14.3952C34.415 14.767 34.1312 15.0919 33.8044 15.3641C33.3338 14.9293 32.6832 14.7336 32.0339 14.8475C31.9015 14.8708 31.7743 14.9077 31.6527 14.9555V13.3608ZM37.2891 27.8226V25.4441C38.1784 25.8008 39.1457 25.997 40.1526 25.997C41.1525 25.997 42.1214 25.8017 43.0162 25.4422V27.8225L41.0266 30.5894C41.0243 30.5925 41.0225 30.5959 41.0202 30.5992C41.018 30.6024 41.0155 30.6053 41.0133 30.6085L40.1904 31.8428C40.1857 31.8499 40.177 31.863 40.1526 31.863C40.1283 31.863 40.1196 31.8499 40.1148 31.8428L39.292 30.6085C39.2898 30.6053 39.2873 30.6024 39.2851 30.5992C39.2828 30.5959 39.281 30.5925 39.2787 30.5894L37.2891 27.8226ZM37.8313 30.8345L36.8807 31.5474C36.7023 31.6812 36.4756 31.7286 36.2585 31.6774C36.0415 31.6261 35.8597 31.4823 35.76 31.2829L34.6321 29.0269L35.8087 28.0218L37.8313 30.8345ZM44.4968 28.0218L45.6735 29.0269L44.5455 31.2829C44.4457 31.4824 44.2641 31.6261 44.0471 31.6774C43.83 31.7286 43.6032 31.6812 43.4248 31.5474L42.4743 30.8345L44.4968 28.0218ZM30.4311 25.0068C30.7484 24.1312 31.2741 22.3217 31.5192 19.4516C31.6478 19.515 31.783 19.5662 31.9251 19.5999C32.1296 19.6482 32.3373 19.6656 32.5423 19.6514C32.5575 19.6575 32.5795 19.6798 32.5831 19.6926C32.9777 21.8406 34.2416 23.6415 35.9708 24.7615V26.3985C35.7992 26.3867 35.6289 26.4415 35.4973 26.5539L35.2633 26.7539C33.1386 26.1761 31.3077 25.4033 30.4311 25.0068ZM30.3251 31.1309L33.5034 29.7175L34.5808 31.8725C34.8559 32.4226 35.357 32.8191 35.9555 32.9604C36.1136 32.9977 36.2736 33.0161 36.4326 33.0161C36.8753 33.0161 37.3096 32.8736 37.6717 32.6021L38.5818 31.9196L39.0181 32.5741C39.2716 32.9544 39.6958 33.1814 40.1528 33.1814C40.6098 33.1814 41.034 32.9544 41.2875 32.5741L41.7238 31.9196L42.6338 32.6021C42.9959 32.8736 43.4303 33.0161 43.873 33.0161C44.0319 33.0161 44.1919 32.9977 44.35 32.9604C44.9487 32.8191 45.4496 32.4226 45.7247 31.8725L46.8162 29.6896L50.0572 31.1309C50.3118 31.2441 50.5479 31.3844 50.7633 31.5471L48.3672 34.5422H32.0152L29.619 31.5471C29.8344 31.3845 30.0704 31.2442 30.3251 31.1309ZM29.7138 36.7253L30.2618 46.5888C30.2742 46.8123 30.3223 47.0256 30.3996 47.2241H28.5608L28.2082 34.4899C28.1887 33.7852 28.3752 33.1122 28.7236 32.5383L30.6147 34.9021C30.4926 34.985 30.3788 35.0808 30.2763 35.1892C29.8874 35.6003 29.6823 36.1602 29.7138 36.7253ZM49.2756 36.6522L48.7276 46.5158C48.7055 46.913 48.3767 47.2241 47.9789 47.2241H32.3267V47.2241C31.9289 47.2241 31.6 46.9129 31.5779 46.5158L31.0299 36.6521C31.0184 36.4443 31.0908 36.2465 31.2339 36.0953C31.377 35.944 31.5705 35.8608 31.7787 35.8608H48.5269C48.7351 35.8608 48.9285 35.944 49.0716 36.0953C49.2147 36.2465 49.2871 36.4443 49.2756 36.6522ZM51.8214 47.2241H49.906C49.9833 47.0256 50.0315 46.8123 50.0438 46.5889L50.5918 36.7253C50.6232 36.1602 50.4182 35.6003 50.0293 35.1892C49.9407 35.0955 49.8435 35.0114 49.74 34.9366L51.6587 32.5382C52.007 33.1122 52.1935 33.7853 52.174 34.4899L51.8214 47.2241Z" fill="black"/>
<path d="M40.153 39.474C38.8183 39.474 37.7324 40.5598 37.7324 41.8946C37.7324 43.2294 38.8182 44.3152 40.153 44.3152C41.4878 44.3152 42.5736 43.2294 42.5736 41.8946C42.5736 40.5598 41.4877 39.474 40.153 39.474ZM40.153 42.9968C39.5453 42.9968 39.0508 42.5023 39.0508 41.8945C39.0508 41.2868 39.5452 40.7923 40.153 40.7923C40.7609 40.7923 41.2553 41.2868 41.2553 41.8945C41.2553 42.5023 40.7608 42.9968 40.153 42.9968Z" fill="black"/>
</g>
<defs>
<clipPath id="clip0_302_1235">
<rect width="45" height="45" fill="white" transform="translate(17.6523 3.54242)"/>
</clipPath>
</defs>
</svg>
