<svg width="46" height="46" viewBox="0 0 46 46" fill="none" xmlns="http://www.w3.org/2000/svg">
<path d="M45.5271 18.8338C46.9973 17.4513 48.7574 16.2746 50.6495 15.1316C51.9475 14.3473 53.7066 13.197 53.4639 12.0862C53.301 11.3424 51.9514 10.6164 50.6487 11.1981C50.5588 11.2382 50.4766 11.2874 50.3991 11.3397C50.383 10.5495 50.975 9.69471 51.9521 9.06288C52.2673 8.85924 52.3465 8.56035 52.1181 8.39146C51.6583 8.05154 51.1984 7.71137 50.7385 7.37121C50.5619 7.24083 50.4169 6.9798 50.0786 7.04403C49.6815 7.11927 49.2891 7.23557 48.9088 7.36937C47.8781 7.73216 46.9677 8.29046 46.3073 8.93547C46.0333 9.2031 45.5242 9.30973 45.2134 9.15843C44.2533 8.69149 42.9964 8.4866 41.6424 8.53639C40.7879 8.56785 39.8994 8.7226 39.0472 8.97302C38.8572 9.02912 38.6671 9.09266 38.4825 9.16142C38.2268 9.25643 38.106 9.32561 37.8747 9.25411C37.441 9.11986 37.2487 8.79911 37.1664 8.48531C36.8334 7.21035 38.6103 5.77122 37.9245 4.5431C37.5757 3.91836 36.7471 3.4531 36.1148 2.97719C35.3616 2.41051 34.6083 1.84357 33.8547 1.27698C33.8274 1.25636 33.7757 1.26866 33.741 1.28861C30.4048 3.20987 27.0614 5.13862 23.7918 7.12128C23.6467 7.01386 23.5016 6.90643 23.3565 6.79901C23.2731 6.7373 23.2042 6.6142 23.0444 6.64434C22.8564 6.67992 22.6712 6.73498 22.4914 6.79818C22.0037 6.96988 21.5735 7.23367 21.2612 7.53872C21.1316 7.66536 20.8909 7.71563 20.7439 7.64411C20.2902 7.42338 19.6955 7.32651 19.0554 7.35016C18.6512 7.365 18.2314 7.43809 17.8284 7.55643C17.7385 7.58297 17.6488 7.61293 17.5613 7.64547C17.4407 7.69037 17.3833 7.72308 17.2741 7.68931C17.0688 7.62602 16.9779 7.47421 16.939 7.32576C16.7818 6.72304 17.6219 6.04254 17.2976 5.46181C17.1327 5.16646 16.741 4.9464 16.4418 4.72147C16.0855 4.45355 15.7296 4.18553 15.3733 3.91737C15.3605 3.90778 15.3359 3.91358 15.3194 3.92306C11.6333 6.04581 7.92606 8.18753 4.69934 10.6295C3.417 11.6 2.22169 12.6175 1.15635 13.68C1.15423 13.6825 1.15322 13.6846 1.15221 13.6867C-0.130106 14.3005 -1.21817 15.1181 -1.94916 16.0291C-1.96397 16.0477 -1.94717 16.0735 -1.91201 16.0614C-1.6717 15.9801 -1.47825 16.0418 -1.36218 16.1517C-1.24246 16.2649 -1.27264 16.417 -1.36529 16.5665C-1.56187 16.8838 -2.06698 17.1754 -2.43176 17.4249C-3.2744 18.0012 -4.16423 18.5476 -5.08902 19.0624C-5.1069 19.0725 -5.11674 19.086 -5.10761 19.098C-4.92359 19.3376 -4.7971 19.5975 -4.7283 19.8755C-4.69821 19.9955 -4.50741 20.0443 -4.31481 19.9859C-3.98964 19.8874 -3.66115 19.8013 -3.33094 19.7276C-2.99322 19.6523 -2.81703 19.8938 -3.07902 20.0746C-3.19771 20.1562 -3.31634 20.2381 -3.43534 20.3201C-3.44767 20.3288 -3.45379 20.3429 -3.44572 20.3509L-2.97272 20.8097C-2.87 20.9096 -2.64678 20.905 -2.47626 20.7996C-1.68647 20.3099 -0.896238 19.8203 -0.106077 19.3305C0.119062 19.191 0.344507 19.0511 0.570017 18.9115C0.775095 18.7843 0.975876 18.6455 1.19715 18.5315C1.43375 18.4097 1.97424 18.2059 2.13668 18.3886C2.18885 18.4475 2.04425 18.53 1.97868 18.5838C1.88069 18.6644 1.78176 18.7445 1.6824 18.8244C1.50075 18.9711 1.31599 19.1166 1.12979 19.2611C0.757881 19.5504 0.37636 19.835 -0.0112896 20.1158C-0.740631 20.6436 -1.49891 21.1549 -2.28026 21.6496C-2.37168 21.7074 -2.43367 21.8116 -2.41675 21.8808C-2.38731 22.0028 -2.35779 22.125 -2.32834 22.247C-2.3161 22.2972 -2.30227 22.306 -2.38557 22.3276C-2.43992 22.3419 -2.49335 22.3597 -2.54634 22.3777C-2.63856 22.4088 -2.72606 22.4472 -2.81186 22.4876C-3.17075 22.6569 -3.44894 22.9059 -3.6012 23.164C-3.90975 23.6874 -3.50919 24.1861 -2.82178 24.301C-2.80981 24.3028 -2.79346 24.2974 -2.78337 24.2907C-1.88149 23.6798 -0.877083 23.1444 0.198399 22.6972C0.74378 22.4704 1.30717 22.2709 1.87911 22.096C1.94536 22.0758 2.01211 22.056 2.07893 22.0365C2.13548 22.02 2.12342 22.0608 2.12986 22.0848C2.1464 22.1437 2.14274 22.207 2.13202 22.2706C2.10852 22.4092 2.01501 22.5525 1.91174 22.6859C1.75807 22.8839 1.56472 23.0743 1.38104 23.2652C-0.289534 24.3292 -1.71426 25.5636 -2.7798 26.8918C-2.81162 26.9312 -2.77611 26.9855 -2.70135 26.9601C-2.19357 26.7881 -1.78423 26.9185 -1.53842 27.1509C-1.28556 27.3904 -1.3492 27.712 -1.54531 28.0282C-1.96083 28.6993 -3.02968 29.3164 -3.80109 29.8437C-5.58271 31.0624 -7.46476 32.2178 -9.42078 33.3069C-9.45868 33.328 -9.47943 33.357 -9.46004 33.3821C-9.07122 33.8888 -8.80309 34.4386 -8.65742 35.0263C-8.59425 35.2803 -8.1903 35.3831 -7.78307 35.2599C-7.09539 35.0516 -6.4011 34.8694 -5.7025 34.7137C-4.98825 34.5544 -4.615 35.065 -5.16954 35.4471C-5.42084 35.6205 -5.67184 35.7936 -5.92321 35.9667C-5.9493 35.9847 -5.9626 36.0149 -5.94497 36.0319L-4.94523 37.0025C-4.72765 37.2137 -4.25531 37.2037 -3.89499 36.9805C-2.22433 35.9449 -0.55324 34.9095 1.11742 33.8739C1.59418 33.5785 2.07095 33.283 2.54735 32.9877C2.98129 32.7186 3.40588 32.4249 3.87394 32.1842C4.37465 31.9265 5.51742 31.4956 5.86056 31.8817C5.97146 32.0063 5.66537 32.1806 5.52679 32.2945C5.31978 32.4648 5.11059 32.6344 4.90047 32.8034C4.51595 33.1138 4.12551 33.4212 3.73189 33.727C2.94507 34.3389 2.13853 34.9407 1.31805 35.5347C-0.224207 36.6508 -1.82803 37.732 -3.48007 38.778C-3.67403 38.9009 -3.80448 39.1207 -3.76883 39.2673C-3.70695 39.5254 -3.64426 39.7835 -3.58195 40.0417C-3.55631 40.148 -3.52684 40.1664 -3.70297 40.2124C-3.8181 40.2422 -3.93096 40.2805 -4.04316 40.3184C-4.2378 40.384 -4.42342 40.4655 -4.60483 40.5509C-5.36345 40.9085 -5.95208 41.4355 -6.27371 41.981C-6.92651 43.0882 -6.07962 44.1429 -4.62539 44.3853C-4.60007 44.3897 -4.56565 44.3778 -4.54488 44.3637C-2.63704 43.0723 -0.512516 41.9398 1.76165 40.994C2.91509 40.5141 4.10628 40.0926 5.31598 39.7224C5.45654 39.6796 5.59743 39.6381 5.73839 39.5968C5.85843 39.5616 5.83242 39.6479 5.84684 39.6989C5.88141 39.8237 5.87366 39.9576 5.851 40.0919C5.8015 40.385 5.60378 40.6877 5.38508 40.9698C4.55562 42.0395 3.17436 43.0027 3.00292 44.1602C2.8172 45.4124 4.26874 46.2102 5.63285 46.7063C6.23663 46.9258 6.89063 47.0978 7.5601 47.2462C7.6847 47.274 7.86027 47.3325 8.03267 47.3703C8.20588 47.4082 8.41508 47.3882 8.60755 47.3189C8.97781 47.1862 9.348 47.0533 9.71826 46.9206C10.1625 46.7611 10.6072 46.6017 11.0514 46.4422C11.2913 46.3563 11.8864 46.9225 12.0211 47.0176C12.089 47.0659 12.388 47.198 12.2789 47.2992C12.1165 47.45 11.9541 47.6007 11.7917 47.7513C11.5682 47.9588 11.3446 48.1663 11.1213 48.3734C10.9256 48.5551 10.9011 48.8156 11.0816 48.943C11.9951 49.5881 13.6405 49.617 15.1504 49.2816C17.492 48.761 19.4921 47.3501 21.3244 46.2069C23.3315 44.9549 25.3381 43.7029 27.3451 42.4508C27.648 42.3045 27.9573 42.1643 28.2733 42.0328C28.8187 41.8062 29.3821 41.6068 29.954 41.4319C30.0202 41.4114 30.087 41.3919 30.1539 41.3723C30.2103 41.3556 30.1983 41.3963 30.2048 41.4207C30.2213 41.4796 30.2177 41.5429 30.207 41.6064C30.1835 41.745 30.09 41.8883 29.9866 42.0215C29.5942 42.5274 28.9413 42.9828 28.86 43.53C28.7725 44.1221 29.4589 44.4994 30.1039 44.7339C30.3893 44.8377 30.6985 44.9192 31.0149 44.9894C31.0738 45.0023 31.1568 45.0301 31.2388 45.048C31.3204 45.066 31.4192 45.0565 31.5106 45.0237C31.6854 44.9608 31.8606 44.898 32.0354 44.8354C32.2456 44.76 32.4558 44.6844 32.666 44.6091C32.7795 44.5685 33.0609 44.8363 33.1244 44.8812C33.1566 44.904 33.298 44.9664 33.2463 45.0143C33.1695 45.0855 33.0928 45.157 33.016 45.2281C32.9104 45.3262 32.8044 45.4242 32.6988 45.5223C32.6062 45.6081 32.5948 45.7312 32.6802 45.7916C33.1121 46.0967 33.89 46.1103 34.604 45.9515C35.7112 45.7056 36.657 45.0385 37.5234 44.4978C39.5752 43.2178 41.6274 41.9376 43.6792 40.6576L47.1853 38.47C47.7712 38.1045 48.3584 37.7395 48.9433 37.3732C49.2424 37.1859 49.5366 36.9911 49.7722 36.7734C49.9353 36.6226 49.8386 36.4474 49.5927 36.4487C49.5868 36.4487 49.5808 36.4487 49.5753 36.4486C49.3073 36.4487 49.2249 36.2443 49.4329 36.0937C50.6697 35.1973 51.9065 34.3009 53.1434 33.4047C53.2548 33.3239 53.2905 33.2164 53.2321 33.1386C52.928 32.734 52.6238 32.3292 52.3197 31.9245C52.3111 31.913 52.2881 31.9131 52.2688 31.9209C51.9345 32.0578 51.5912 32.1713 51.2344 32.2639C51.2048 32.2716 51.1103 32.2927 51.0804 32.2994C50.9734 32.3242 50.6877 32.4147 50.6764 32.3224C50.6539 32.1419 50.55 31.9814 50.3924 31.8525C50.2699 31.7526 50.0335 31.7746 49.872 31.9002C49.541 32.1576 49.132 32.3659 48.6793 32.5072C48.535 32.5521 48.5266 32.4082 48.4938 32.3449C48.4509 32.2614 48.3601 32.1737 48.4527 32.0727C48.6138 31.8966 48.7871 31.7244 48.9673 31.5547C49.6626 30.9011 50.4947 30.3446 51.3893 29.8041C52.0031 29.4333 52.835 28.8894 52.7199 28.3643C52.6429 28.0126 52.0052 27.6691 51.3892 27.9442C51.3464 27.9634 51.3075 27.9866 51.271 28.0113C51.2632 27.6376 51.5435 27.2333 52.0052 26.9347C52.1544 26.8385 52.1918 26.6972 52.0838 26.6174C51.8662 26.4565 51.649 26.2957 51.4315 26.1348C51.3481 26.0731 51.2794 25.9497 51.1193 25.9802C50.9317 26.0157 50.7461 26.0708 50.5663 26.134C50.079 26.3056 49.6484 26.5695 49.3361 26.8746C49.2065 27.0012 48.9662 27.0514 48.8188 26.9799C48.7583 26.9504 48.6944 26.9234 48.6292 26.8983C50.5388 25.5143 52.4487 24.1302 54.3587 22.7461C54.5944 22.575 54.6707 22.348 54.5467 22.1833C53.9034 21.3275 53.2601 20.4718 52.6168 19.6158C52.5989 19.5916 52.5498 19.5915 52.5098 19.6081C51.8022 19.8974 51.0759 20.1374 50.322 20.3335C50.259 20.3496 50.0592 20.3942 49.9958 20.4089C49.7694 20.4609 49.1655 20.6523 49.1415 20.4573C49.0939 20.0753 48.8745 19.7358 48.5413 19.4636C48.2824 19.252 47.7819 19.2989 47.4404 19.5644C46.7405 20.1087 45.8751 20.5496 44.9177 20.8479C44.6127 20.9432 44.5945 20.6385 44.5255 20.5045C44.4347 20.3279 44.2435 20.1429 44.4389 19.9291C44.7792 19.5569 45.1457 19.1926 45.5271 18.8338Z" fill="#FFE466" fill-opacity="0.5"/>
<path d="M-5.15119 15.6662C-5.15119 15.6662 -2.87377 14.3269 0.272308 11.6766C3.41838 9.02624 4.51474 7.91839 7.77083 5.95931C11.0266 4.00057 13.1864 3.14934 11.9046 4.30698C10.6225 5.46472 6.08462 8.58144 1.12478 12.3539C-3.83475 16.1261 -8.82808 19.7718 -5.15119 15.6662Z" fill="#FFE466" fill-opacity="0.5"/>
<path d="M43.0531 42.3517C43.0531 42.3517 45.3305 41.0126 48.4766 38.3623C51.6227 35.712 52.7191 34.6041 55.9752 32.645C59.2309 30.686 61.3906 29.8348 60.1088 30.9925C58.8268 32.1504 54.2889 35.2672 49.329 39.0394C44.3696 42.8118 39.3762 46.4576 43.0531 42.3517Z" fill="#FFE466" fill-opacity="0.5"/>
<path d="M-7.14646 19.7504C-6.91753 20.6065 -7.42369 21.4864 -8.277 21.7155C-9.13031 21.9447 -10.0076 21.4364 -10.2366 20.5802C-10.4655 19.7241 -9.95934 18.8442 -9.10603 18.6151C-8.25272 18.3859 -7.37539 18.8942 -7.14646 19.7504Z" fill="#FFE466" fill-opacity="0.5"/>
<path d="M-10.391 13.8093C-10.2766 14.2374 -10.5296 14.6773 -10.9563 14.7919C-11.3829 14.9065 -11.8216 14.6523 -11.9361 14.2243C-12.0505 13.7962 -11.7975 13.3563 -11.3708 13.2417C-10.9441 13.1271 -10.5055 13.3812 -10.391 13.8093Z" fill="#FFE466" fill-opacity="0.5"/>
<path d="M-12.2488 18.6283C-12.1344 19.0563 -12.3875 19.4963 -12.8141 19.6108C-13.2408 19.7254 -13.6794 19.4713 -13.7939 19.0432C-13.9084 18.6151 -13.6553 18.1752 -13.2286 18.0606C-12.802 17.946 -12.3633 18.2002 -12.2488 18.6283Z" fill="#FFE466" fill-opacity="0.5"/>
<path d="M-4.80436 21.6968C-4.72423 21.9964 -4.90139 22.3044 -5.20005 22.3846C-5.49871 22.4648 -5.80577 22.2869 -5.8859 21.9872C-5.96602 21.6876 -5.78886 21.3796 -5.4902 21.2994C-5.19155 21.2192 -4.88448 21.3971 -4.80436 21.6968Z" fill="#FFE466" fill-opacity="0.5"/>
<path d="M-8.2601 26.1141C-8.17997 26.4137 -8.35713 26.7217 -8.65579 26.8019C-8.95445 26.8821 -9.26151 26.7042 -9.34164 26.4045C-9.42176 26.1049 -9.2446 25.7969 -8.94595 25.7167C-8.64729 25.6365 -8.34022 25.8144 -8.2601 26.1141Z" fill="#FFE466" fill-opacity="0.5"/>
<path d="M-15.8308 28.1472C-15.7507 28.4469 -15.9279 28.7548 -16.2265 28.835C-16.5252 28.9152 -16.8323 28.7373 -16.9124 28.4377C-16.9925 28.138 -16.8153 27.8301 -16.5167 27.7499C-16.218 27.6697 -15.911 27.8476 -15.8308 28.1472Z" fill="#FFE466" fill-opacity="0.5"/>
<path d="M-9.74112 28.0072C-9.54653 28.7349 -9.97677 29.4828 -10.7021 29.6776C-11.4274 29.8724 -12.1731 29.4403 -12.3677 28.7126C-12.5623 27.9848 -12.1321 27.237 -11.4067 27.0422C-10.6814 26.8474 -9.93571 27.2795 -9.74112 28.0072Z" fill="#FFE466" fill-opacity="0.5"/>
<path d="M22.9652 0.448287C23.1598 1.17603 22.7296 1.92389 22.0043 2.11867C21.279 2.31346 20.5332 1.88141 20.3387 1.15367C20.1441 0.425926 20.5743 -0.321931 21.2996 -0.516717C22.0249 -0.711503 22.7707 -0.279456 22.9652 0.448287Z" fill="#FFE466" fill-opacity="0.5"/>
<path d="M28.5797 47.4577C28.7743 48.1854 28.3441 48.9333 27.6188 49.1281C26.8935 49.3228 26.1477 48.8908 25.9531 48.163C25.7586 47.4353 26.1888 46.6874 26.9141 46.4927C27.6394 46.2979 28.3851 46.7299 28.5797 47.4577Z" fill="#FFE466" fill-opacity="0.5"/>
<path d="M59.0795 39.516C59.4687 40.9715 58.6082 42.4672 57.1576 42.8568C55.707 43.2464 54.2155 42.3823 53.8263 40.9268C53.4371 39.4713 54.2976 37.9756 55.7483 37.586C57.1989 37.1964 58.6903 38.0605 59.0795 39.516Z" fill="#FFE466" fill-opacity="0.5"/>
<path d="M58.5841 25.2767C58.7558 25.9188 58.3762 26.5787 57.7362 26.7506C57.0962 26.9224 56.4382 26.5412 56.2665 25.8991C56.0948 25.257 56.4744 24.5971 57.1144 24.4252C57.7544 24.2534 58.4124 24.6346 58.5841 25.2767Z" fill="#FFE466" fill-opacity="0.5"/>
<path d="M63.0873 32.2089C63.1903 32.5942 62.9625 32.9901 62.5786 33.0933C62.1946 33.1964 61.7998 32.9676 61.6967 32.5824C61.5937 32.1971 61.8215 31.8012 62.2055 31.698C62.5895 31.5949 62.9843 31.8237 63.0873 32.2089Z" fill="#FFE466" fill-opacity="0.5"/>
<path d="M60.8527 26.329C60.9099 26.543 60.7834 26.763 60.57 26.8203C60.3567 26.8776 60.1374 26.7505 60.0802 26.5365C60.0229 26.3224 60.1495 26.1025 60.3628 26.0452C60.5761 25.9879 60.7954 26.115 60.8527 26.329Z" fill="#FFE466" fill-opacity="0.5"/>
<path d="M26.1665 -1.82376C26.2581 -1.48129 26.0557 -1.12936 25.7143 -1.0377C25.373 -0.946032 25.0221 -1.14935 24.9305 -1.49182C24.8389 -1.83428 25.0414 -2.18621 25.3827 -2.27788C25.724 -2.36954 26.075 -2.16623 26.1665 -1.82376Z" fill="#FFE466" fill-opacity="0.5"/>
<path d="M57.4519 5.55912C57.6579 6.32967 57.2024 7.12152 56.4344 7.32776C55.6664 7.53401 54.8768 7.07655 54.6708 6.30599C54.4648 5.53544 54.9203 4.7436 55.6883 4.53735C56.4563 4.33111 57.2458 4.78857 57.4519 5.55912Z" fill="#FFE466" fill-opacity="0.5"/>
<path d="M17.6255 -0.942332C17.7285 -0.557057 17.5007 -0.161133 17.1167 -0.0580108C16.7327 0.0451112 16.3379 -0.183619 16.2349 -0.568894C16.1319 -0.95417 16.3597 -1.35009 16.7436 -1.45322C17.1276 -1.55634 17.5224 -1.32761 17.6255 -0.942332Z" fill="#FFE466" fill-opacity="0.5"/>
<path d="M42.3613 2.38406C42.4643 2.76933 42.2365 3.16526 41.8525 3.26838C41.4685 3.3715 41.0737 3.14277 40.9707 2.75749C40.8677 2.37222 41.0955 1.9763 41.4795 1.87317C41.8634 1.77005 42.2582 1.99878 42.3613 2.38406Z" fill="#FFE466" fill-opacity="0.5"/>
<path d="M54.552 16.3903C54.655 16.7756 54.4272 17.1715 54.0432 17.2746C53.6592 17.3777 53.2644 17.149 53.1614 16.7637C53.0584 16.3784 53.2862 15.9825 53.6702 15.8794C54.0541 15.7763 54.449 16.005 54.552 16.3903Z" fill="#FFE466" fill-opacity="0.5"/>
<path d="M12.613 44.1025C12.716 44.4877 12.4883 44.8837 12.1043 44.9868C11.7203 45.0899 11.3255 44.8612 11.2225 44.4759C11.1195 44.0906 11.3472 43.6947 11.7312 43.5916C12.1152 43.4885 12.51 43.7172 12.613 44.1025Z" fill="#FFE466" fill-opacity="0.5"/>
<path d="M50.919 33.1506C50.9763 33.3647 50.8497 33.5846 50.6364 33.6419C50.4231 33.6992 50.2037 33.5721 50.1465 33.3581C50.0893 33.1441 50.2158 32.9241 50.4291 32.8668C50.6425 32.8095 50.8618 32.9366 50.919 33.1506Z" fill="#FFE466" fill-opacity="0.5"/>
<path d="M47.6631 33.3604C47.6974 33.4888 47.6215 33.6208 47.4935 33.6552C47.3655 33.6895 47.2339 33.6133 47.1996 33.4849C47.1652 33.3564 47.2412 33.2245 47.3692 33.1901C47.4972 33.1557 47.6288 33.232 47.6631 33.3604Z" fill="#FFE466" fill-opacity="0.5"/>
<path d="M39.2947 44.2241H36.0778L36.4293 31.5263C36.4842 29.5396 35.3463 27.7339 33.5302 26.9263L29.7793 25.2582C29.7566 25.2481 29.7337 25.2398 29.7106 25.2324L29.181 24.78C31.8571 23.9683 33.8583 22.9748 33.9532 22.9275C34.2772 22.7655 34.4087 22.3702 34.249 22.0451C34.2355 22.0178 32.9085 19.2455 32.9085 13.1788V10.3606C32.9085 4.94679 28.504 0.542419 23.0902 0.542419C17.6764 0.542419 13.2721 4.94679 13.2721 10.3606V13.1788C13.2721 19.2455 11.9449 22.0178 11.9326 22.043C11.7697 22.3687 11.9017 22.7646 12.2274 22.9275C12.3229 22.9752 14.3238 23.9687 16.9993 24.7802L16.3981 25.2937L12.727 26.9264C10.9109 27.7339 9.77295 29.5396 9.82788 31.5264L10.1794 44.2241H6.88574C6.5217 44.2241 6.22656 44.5192 6.22656 44.8832C6.22656 45.2473 6.5217 45.5424 6.88574 45.5424H39.2947C39.6587 45.5424 39.9539 45.2473 39.9539 44.8832C39.9539 44.5192 39.6587 44.2241 39.2947 44.2241ZM14.5902 10.3608C14.5904 5.67383 18.4034 1.86078 23.0902 1.86078C27.7771 1.86078 31.5901 5.67383 31.5901 10.3606V13.1788C31.5901 17.9946 32.3875 20.8357 32.8119 22.0067C31.9351 22.4033 30.1042 23.1762 27.9798 23.7539L27.7456 23.5539C27.614 23.4415 27.4437 23.3867 27.2721 23.3985V21.7596C28.5069 20.9597 29.5134 19.8073 30.1325 18.405C30.4949 17.5843 30.6987 16.6725 30.7219 15.768C30.7981 12.795 28.2475 12.0419 25.547 11.2447C23.2848 10.5768 20.7207 9.81989 18.6181 7.77459C18.3571 7.52076 17.9398 7.52656 17.686 7.78742C17.4322 8.04845 17.4379 8.46576 17.6988 8.71959C20.0351 10.992 22.8844 11.8332 25.1738 12.5092C28.0647 13.3626 29.4521 13.8562 29.4039 15.7341C29.3851 16.4684 29.2201 17.2078 28.9265 17.8725C27.9057 20.1847 25.6147 21.6788 23.0902 21.6788C20.0115 21.6788 17.3734 19.4816 16.8173 16.4545C16.693 15.7777 16.0664 15.2866 15.3915 15.336C15.3177 15.3414 15.2422 15.3349 15.1663 15.317C14.838 15.2393 14.5903 14.8862 14.5903 14.4956V13.9549C14.5903 13.5547 14.8521 13.207 15.1994 13.1461C15.4855 13.0958 15.7605 13.2013 15.9345 13.4282C16.0607 13.5928 16.2288 13.7104 16.4205 13.7683C16.7013 13.8531 17.011 13.8034 17.2492 13.6353C17.8258 13.2284 18.3145 12.7121 18.7018 12.1009C18.8966 11.7934 18.8054 11.3862 18.4979 11.1912C18.1903 10.9964 17.7831 11.0877 17.5882 11.3952C17.3525 11.767 17.0687 12.0919 16.7419 12.3641C16.2713 11.9293 15.6207 11.7336 14.9714 11.8475C14.839 11.8708 14.7118 11.9077 14.5902 11.9555V10.3608ZM20.2266 24.8226V22.4441C21.1159 22.8008 22.0832 22.997 23.0901 22.997C24.09 22.997 25.0589 22.8017 25.9537 22.4422V24.8225L23.9641 27.5894C23.9618 27.5925 23.96 27.5959 23.9577 27.5992C23.9555 27.6024 23.953 27.6053 23.9508 27.6085L23.1279 28.8428C23.1232 28.8499 23.1145 28.863 23.0901 28.863C23.0658 28.863 23.0571 28.8499 23.0523 28.8428L22.2295 27.6085C22.2273 27.6053 22.2248 27.6024 22.2226 27.5992C22.2203 27.5959 22.2185 27.5925 22.2162 27.5894L20.2266 24.8226ZM20.7688 27.8345L19.8182 28.5474C19.6398 28.6812 19.4131 28.7286 19.196 28.6774C18.979 28.6261 18.7972 28.4823 18.6975 28.2829L17.5696 26.0269L18.7462 25.0218L20.7688 27.8345ZM27.4343 25.0218L28.611 26.0269L27.483 28.2829C27.3832 28.4824 27.2016 28.6261 26.9846 28.6774C26.7675 28.7286 26.5407 28.6812 26.3623 28.5474L25.4118 27.8345L27.4343 25.0218ZM13.3686 22.0068C13.6859 21.1312 14.2116 19.3217 14.4567 16.4516C14.5853 16.515 14.7205 16.5662 14.8626 16.5999C15.0671 16.6482 15.2748 16.6656 15.4798 16.6514C15.495 16.6575 15.517 16.6798 15.5206 16.6926C15.9152 18.8406 17.1791 20.6415 18.9083 21.7615V23.3985C18.7367 23.3867 18.5664 23.4415 18.4348 23.5539L18.2008 23.7539C16.0761 23.1761 14.2452 22.4033 13.3686 22.0068ZM13.2626 28.1309L16.4409 26.7175L17.5183 28.8725C17.7934 29.4226 18.2945 29.8191 18.893 29.9604C19.0511 29.9977 19.2111 30.0161 19.3701 30.0161C19.8128 30.0161 20.2471 29.8736 20.6092 29.6021L21.5193 28.9196L21.9556 29.5741C22.2091 29.9544 22.6333 30.1814 23.0903 30.1814C23.5473 30.1814 23.9715 29.9544 24.225 29.5741L24.6613 28.9196L25.5713 29.6021C25.9334 29.8736 26.3678 30.0161 26.8105 30.0161C26.9694 30.0161 27.1294 29.9977 27.2875 29.9604C27.8862 29.8191 28.3871 29.4226 28.6622 28.8725L29.7537 26.6896L32.9947 28.1309C33.2493 28.2441 33.4854 28.3844 33.7008 28.5471L31.3047 31.5422H14.9527L12.5565 28.5471C12.7719 28.3845 13.0079 28.2442 13.2626 28.1309ZM12.6513 33.7253L13.1993 43.5888C13.2117 43.8123 13.2598 44.0256 13.3371 44.2241H11.4983L11.1457 31.4899C11.1262 30.7852 11.3127 30.1122 11.6611 29.5383L13.5522 31.9021C13.4301 31.985 13.3163 32.0808 13.2138 32.1892C12.8249 32.6003 12.6198 33.1602 12.6513 33.7253ZM32.2131 33.6522L31.6651 43.5158C31.643 43.913 31.3142 44.2241 30.9164 44.2241H15.2642V44.2241C14.8664 44.2241 14.5375 43.9129 14.5154 43.5158L13.9674 33.6521C13.9559 33.4443 14.0283 33.2465 14.1714 33.0953C14.3145 32.944 14.508 32.8608 14.7162 32.8608H31.4644C31.6726 32.8608 31.866 32.944 32.0091 33.0953C32.1522 33.2465 32.2246 33.4443 32.2131 33.6522ZM34.7589 44.2241H32.8435C32.9208 44.0256 32.969 43.8123 32.9813 43.5889L33.5293 33.7253C33.5607 33.1602 33.3557 32.6003 32.9668 32.1892C32.8782 32.0955 32.781 32.0114 32.6775 31.9366L34.5962 29.5382C34.9445 30.1122 35.131 30.7853 35.1115 31.4899L34.7589 44.2241Z" fill="black"/>
<path d="M23.0905 36.474C21.7558 36.474 20.6699 37.5598 20.6699 38.8946C20.6699 40.2294 21.7557 41.3152 23.0905 41.3152C24.4253 41.3152 25.5111 40.2294 25.5111 38.8946C25.5111 37.5598 24.4252 36.474 23.0905 36.474ZM23.0905 39.9968C22.4828 39.9968 21.9883 39.5023 21.9883 38.8945C21.9883 38.2868 22.4827 37.7923 23.0905 37.7923C23.6984 37.7923 24.1928 38.2868 24.1928 38.8945C24.1928 39.5023 23.6983 39.9968 23.0905 39.9968Z" fill="black"/>
</svg>
