<svg width="81" height="53" viewBox="0 0 81 53" fill="none" xmlns="http://www.w3.org/2000/svg">
<path d="M62.9373 21.8338C64.4075 20.4513 66.1675 19.2746 68.0596 18.1316C69.3577 17.3473 71.1168 16.197 70.874 15.0862C70.7112 14.3424 69.3616 13.6164 68.0588 14.1981C67.969 14.2382 67.8868 14.2874 67.8093 14.3397C67.7932 13.5495 68.3852 12.6947 69.3622 12.0629C69.6775 11.8592 69.7567 11.5603 69.5283 11.3915C69.0684 11.0515 68.6086 10.7114 68.1487 10.3712C67.9721 10.2408 67.8271 9.9798 67.4888 10.044C67.0917 10.1193 66.6992 10.2356 66.319 10.3694C65.2882 10.7322 64.3778 11.2905 63.7174 11.9355C63.4434 12.2031 62.9344 12.3097 62.6236 12.1584C61.6635 11.6915 60.4065 11.4866 59.0526 11.5364C58.198 11.5678 57.3096 11.7226 56.4574 11.973C56.2673 12.0291 56.0773 12.0927 55.8926 12.1614C55.637 12.2564 55.5161 12.3256 55.2848 12.2541C54.8511 12.1199 54.6589 11.7991 54.5766 11.4853C54.2436 10.2103 56.0205 8.77122 55.3346 7.5431C54.9859 6.91836 54.1573 6.4531 53.5249 5.97719C52.7717 5.41051 52.0184 4.84357 51.2649 4.27698C51.2376 4.25636 51.1858 4.26866 51.1512 4.28861C47.8149 6.20987 44.4716 8.13862 41.202 10.1213C41.0569 10.0139 40.9118 9.90643 40.7667 9.79901C40.6833 9.7373 40.6143 9.6142 40.4546 9.64434C40.2666 9.67992 40.0814 9.73498 39.9015 9.79818C39.4138 9.96988 38.9836 10.2337 38.6713 10.5387C38.5417 10.6654 38.301 10.7156 38.154 10.6441C37.7004 10.4234 37.1056 10.3265 36.4655 10.3502C36.0614 10.365 35.6415 10.4381 35.2386 10.5564C35.1487 10.583 35.0589 10.6129 34.9714 10.6455C34.8508 10.6904 34.7935 10.7231 34.6843 10.6893C34.4789 10.626 34.3881 10.4742 34.3492 10.3258C34.192 9.72304 35.0321 9.04254 34.7078 8.46181C34.5429 8.16646 34.1512 7.9464 33.8519 7.72147C33.4957 7.45355 33.1398 7.18553 32.7835 6.91737C32.7706 6.90778 32.746 6.91358 32.7296 6.92306C29.0434 9.04581 25.3362 11.1875 22.1095 13.6295C20.8272 14.6 19.6318 15.6175 18.5665 16.68C18.5644 16.6825 18.5634 16.6846 18.5624 16.6867C17.2801 17.3005 16.192 18.1181 15.461 19.0291C15.4462 19.0477 15.463 19.0735 15.4982 19.0614C15.7385 18.9801 15.9319 19.0418 16.048 19.1517C16.1677 19.2649 16.1375 19.417 16.0449 19.5665C15.8483 19.8838 15.3432 20.1754 14.9784 20.4249C14.1358 21.0012 13.2459 21.5476 12.3211 22.0624C12.3033 22.0725 12.2934 22.086 12.3025 22.098C12.4866 22.3376 12.6131 22.5975 12.6819 22.8755C12.7119 22.9955 12.9027 23.0443 13.0953 22.9859C13.4205 22.8874 13.749 22.8013 14.0792 22.7276C14.4169 22.6523 14.5931 22.8938 14.3311 23.0746C14.2124 23.1562 14.0938 23.2381 13.9748 23.3201C13.9625 23.3288 13.9564 23.3429 13.9644 23.3509L14.4374 23.8097C14.5402 23.9096 14.7634 23.905 14.9339 23.7996C15.7237 23.3099 16.5139 22.8203 17.3041 22.3305C17.5292 22.191 17.7547 22.0511 17.9802 21.9115C18.1853 21.7843 18.386 21.6455 18.6073 21.5315C18.8439 21.4097 19.3844 21.2059 19.5468 21.3886C19.599 21.4475 19.4544 21.53 19.3888 21.5838C19.2908 21.6644 19.1919 21.7445 19.0926 21.8244C18.9109 21.9711 18.7261 22.1166 18.5399 22.2611C18.168 22.5504 17.7865 22.835 17.3989 23.1158C16.6695 23.6436 15.9112 24.1549 15.1299 24.6496C15.0385 24.7074 14.9765 24.8116 14.9934 24.8808C15.0229 25.0028 15.0524 25.125 15.0818 25.247C15.0941 25.2972 15.1079 25.306 15.0246 25.3276C14.9702 25.3419 14.9168 25.3597 14.8638 25.3777C14.7716 25.4088 14.6841 25.4472 14.5983 25.4876C14.2394 25.6569 13.9612 25.9059 13.809 26.164C13.5004 26.6874 13.901 27.1861 14.5884 27.301C14.6003 27.3028 14.6167 27.2974 14.6268 27.2907C15.5287 26.6798 16.5331 26.1444 17.6086 25.6972C18.1539 25.4704 18.7173 25.2709 19.2893 25.096C19.3555 25.0758 19.4223 25.056 19.4891 25.0365C19.5456 25.02 19.5336 25.0608 19.54 25.0848C19.5566 25.1437 19.5529 25.207 19.5422 25.2706C19.5187 25.4092 19.4252 25.5525 19.3219 25.6859C19.1682 25.8839 18.9749 26.0743 18.7912 26.2652C17.1206 27.3292 15.6959 28.5636 14.6304 29.8918C14.5985 29.9312 14.634 29.9855 14.7088 29.9601C15.2166 29.7881 15.6259 29.9185 15.8717 30.1509C16.1246 30.3904 16.061 30.712 15.8648 31.0282C15.4493 31.6993 14.3805 32.3164 13.6091 32.8437C11.8274 34.0624 9.94539 35.2178 7.98938 36.3069C7.95147 36.328 7.93072 36.357 7.95011 36.3821C8.33894 36.8888 8.60707 37.4386 8.75274 38.0263C8.8159 38.2803 9.21985 38.3831 9.62709 38.2599C10.3148 38.0516 11.0091 37.8694 11.7077 37.7137C12.4219 37.5544 12.7952 38.065 12.2406 38.4471C11.9893 38.6205 11.7383 38.7936 11.4869 38.9667C11.4609 38.9847 11.4476 39.0149 11.4652 39.0319L12.4649 40.0025C12.6825 40.2137 13.1548 40.2037 13.5152 39.9805C15.1858 38.9449 16.8569 37.9095 18.5276 36.8739C19.0043 36.5785 19.4811 36.283 19.9575 35.9877C20.3915 35.7186 20.816 35.4249 21.2841 35.1842C21.7848 34.9265 22.9276 34.4956 23.2707 34.8817C23.3816 35.0063 23.0755 35.1806 22.9369 35.2945C22.7299 35.4648 22.5208 35.6344 22.3106 35.8034C21.9261 36.1138 21.5357 36.4212 21.142 36.727C20.3552 37.3389 19.5487 37.9407 18.7282 38.5347C17.1859 39.6508 15.5821 40.732 13.9301 41.778C13.7361 41.9009 13.6057 42.1207 13.6413 42.2673C13.7032 42.5254 13.7659 42.7835 13.8282 43.0417C13.8538 43.148 13.8833 43.1664 13.7072 43.2124C13.5921 43.2422 13.4792 43.2805 13.367 43.3184C13.1724 43.384 12.9867 43.4655 12.8053 43.5509C12.0467 43.9085 11.4581 44.4355 11.1364 44.981C10.4836 46.0882 11.3305 47.1429 12.7848 47.3853C12.8101 47.3897 12.8445 47.3778 12.8653 47.3637C14.7731 46.0723 16.8976 44.9398 19.1718 43.994C20.3253 43.5141 21.5164 43.0926 22.7261 42.7224C22.8667 42.6796 23.0076 42.6381 23.1485 42.5968C23.2686 42.5616 23.2426 42.6479 23.257 42.6989C23.2916 42.8237 23.2838 42.9576 23.2612 43.0919C23.2117 43.385 23.0139 43.6877 22.7952 43.9698C21.9658 45.0395 20.5845 46.0027 20.4131 47.1602C20.2274 48.4124 21.6789 49.2102 23.043 49.7063C23.6468 49.9258 24.3008 50.0978 24.9703 50.2462C25.0949 50.274 25.2704 50.3325 25.4428 50.3703C25.616 50.4082 25.8252 50.3882 26.0177 50.3189C26.388 50.1862 26.7582 50.0533 27.1284 49.9206C27.5727 49.7611 28.0173 49.6017 28.4616 49.4422C28.7014 49.3563 29.2966 49.9225 29.4313 50.0176C29.4992 50.0659 29.7982 50.198 29.689 50.2992C29.5267 50.45 29.3643 50.6007 29.2019 50.7513C28.9783 50.9588 28.7547 51.1663 28.5314 51.3734C28.3358 51.5551 28.3112 51.8156 28.4918 51.943C29.4053 52.5881 31.0506 52.617 32.5605 52.2816C34.9021 51.761 36.9023 50.3501 38.7346 49.2069C40.7416 47.9549 42.7483 46.7029 44.7553 45.4508C45.0582 45.3045 45.3675 45.1643 45.6834 45.0328C46.2289 44.8062 46.7923 44.6068 47.3642 44.4319C47.4304 44.4114 47.4972 44.3919 47.564 44.3723C47.6205 44.3556 47.6084 44.3963 47.6149 44.4207C47.6315 44.4796 47.6278 44.5429 47.6171 44.6064C47.5936 44.745 47.5001 44.8883 47.3968 45.0215C47.0044 45.5274 46.3515 45.9828 46.2702 46.53C46.1827 47.1221 46.869 47.4994 47.514 47.7339C47.7995 47.8377 48.1086 47.9192 48.4251 47.9894C48.484 48.0023 48.567 48.0301 48.649 48.048C48.7306 48.066 48.8294 48.0565 48.9208 48.0237C49.0955 47.9608 49.2707 47.898 49.4456 47.8354C49.6558 47.76 49.866 47.6844 50.0762 47.6091C50.1896 47.5685 50.471 47.8363 50.5345 47.8812C50.5667 47.904 50.7081 47.9664 50.6564 48.0143C50.5796 48.0855 50.503 48.157 50.4262 48.2281C50.3206 48.3262 50.2146 48.4242 50.109 48.5223C50.0164 48.6081 50.0049 48.7312 50.0904 48.7916C50.5223 49.0967 51.3002 49.1103 52.0142 48.9515C53.1213 48.7056 54.0671 48.0385 54.9336 47.4978C56.9854 46.2178 59.0375 44.9376 61.0893 43.6576L64.5955 41.47C65.1814 41.1045 65.7686 40.7395 66.3535 40.3732C66.6525 40.1859 66.9468 39.9911 67.1823 39.7734C67.3455 39.6226 67.2487 39.4474 67.0029 39.4487C66.9969 39.4487 66.991 39.4487 66.9854 39.4486C66.7175 39.4487 66.6351 39.2443 66.843 39.0937C68.0798 38.1973 69.3166 37.3009 70.5535 36.4047C70.6649 36.3239 70.7007 36.2164 70.6423 36.1386C70.3382 35.734 70.034 35.3292 69.7298 34.9245C69.7212 34.913 69.6983 34.9131 69.679 34.9209C69.3447 35.0578 69.0013 35.1713 68.6445 35.2639C68.6149 35.2716 68.5204 35.2927 68.4905 35.2994C68.3835 35.3242 68.0978 35.4147 68.0866 35.3224C68.0641 35.1419 67.9602 34.9814 67.8026 34.8525C67.6801 34.7526 67.4437 34.7746 67.2821 34.9002C66.9512 35.1576 66.5421 35.3659 66.0895 35.5072C65.9451 35.5521 65.9367 35.4082 65.904 35.3449C65.861 35.2614 65.7703 35.1737 65.8628 35.0727C66.024 34.8966 66.1972 34.7244 66.3775 34.5547C67.0728 33.9011 67.9049 33.3446 68.7995 32.8041C69.4132 32.4333 70.2451 31.8894 70.1301 31.3643C70.0531 31.0126 69.4153 30.6691 68.7993 30.9442C68.7566 30.9634 68.7177 30.9866 68.6811 31.0113C68.6734 30.6376 68.9536 30.2333 69.4153 29.9347C69.5646 29.8385 69.602 29.6972 69.4939 29.6174C69.2764 29.4565 69.0592 29.2957 68.8416 29.1348C68.7582 29.0731 68.6896 28.9497 68.5295 28.9802C68.3419 29.0157 68.1563 29.0708 67.9765 29.134C67.4891 29.3056 67.0586 29.5695 66.7463 29.8746C66.6166 30.0012 66.3763 30.0514 66.229 29.9799C66.1684 29.9504 66.1046 29.9234 66.0393 29.8983C67.9489 28.5143 69.8589 27.1302 71.7689 25.7461C72.0046 25.575 72.0808 25.348 71.9568 25.1833C71.3136 24.3275 70.6703 23.4718 70.027 22.6158C70.009 22.5916 69.9599 22.5915 69.92 22.6081C69.2124 22.8974 68.4861 23.1374 67.7322 23.3335C67.6692 23.3496 67.4693 23.3942 67.406 23.4089C67.1796 23.4609 66.5757 23.6523 66.5516 23.4573C66.5041 23.0753 66.2847 22.7358 65.9514 22.4636C65.6926 22.252 65.1921 22.2989 64.8506 22.5644C64.1506 23.1087 63.2852 23.5496 62.3279 23.8479C62.0228 23.9432 62.0047 23.6385 61.9356 23.5045C61.8449 23.3279 61.6537 23.1429 61.8491 22.9291C62.1893 22.5569 62.5558 22.1926 62.9373 21.8338Z" fill="#FFE466" fill-opacity="0.5"/>
<path d="M12.259 18.6662C12.259 18.6662 14.5364 17.3269 17.6825 14.6766C20.8285 12.0262 21.9249 10.9184 25.181 8.95931C28.4368 7.00057 30.5965 6.14934 29.3148 7.30698C28.0326 8.46472 23.4948 11.5814 18.5349 15.3539C13.5754 19.1261 8.58208 22.7718 12.259 18.6662Z" fill="#FFE466" fill-opacity="0.5"/>
<path d="M60.4632 45.3517C60.4632 45.3517 62.7407 44.0126 65.8868 41.3623C69.0329 38.712 70.1292 37.6041 73.3853 35.645C76.641 33.686 78.8008 32.8348 77.519 33.9925C76.2369 35.1504 71.6991 38.2672 66.7392 42.0394C61.7797 45.8118 56.7864 49.4576 60.4632 45.3517Z" fill="#FFE466" fill-opacity="0.5"/>
<path d="M10.2637 22.7504C10.4926 23.6065 9.98646 24.4864 9.13315 24.7155C8.27984 24.9447 7.40252 24.4364 7.17359 23.5802C6.94466 22.7241 7.45082 21.8442 8.30413 21.6151C9.15744 21.3859 10.0348 21.8942 10.2637 22.7504Z" fill="#FFE466" fill-opacity="0.5"/>
<path d="M7.01914 16.8093C7.13361 17.2374 6.88053 17.6773 6.45387 17.7919C6.02722 17.9065 5.58855 17.6523 5.47409 17.2243C5.35962 16.7962 5.6127 16.3563 6.03936 16.2417C6.46601 16.1271 6.90468 16.3812 7.01914 16.8093Z" fill="#FFE466" fill-opacity="0.5"/>
<path d="M5.16131 21.6283C5.27578 22.0563 5.0227 22.4963 4.59604 22.6108C4.16939 22.7254 3.73072 22.4713 3.61626 22.0432C3.5018 21.6151 3.75488 21.1752 4.18153 21.0606C4.60819 20.946 5.04685 21.2002 5.16131 21.6283Z" fill="#FFE466" fill-opacity="0.5"/>
<path d="M12.6058 24.6968C12.6859 24.9964 12.5088 25.3044 12.2101 25.3846C11.9115 25.4648 11.6044 25.2869 11.5243 24.9872C11.4441 24.6876 11.6213 24.3796 11.92 24.2994C12.2186 24.2192 12.5257 24.3971 12.6058 24.6968Z" fill="#FFE466" fill-opacity="0.5"/>
<path d="M9.15006 29.1141C9.23018 29.4137 9.05303 29.7217 8.75437 29.8019C8.45571 29.8821 8.14865 29.7042 8.06852 29.4045C7.9884 29.1049 8.16555 28.7969 8.46421 28.7167C8.76287 28.6365 9.06993 28.8144 9.15006 29.1141Z" fill="#FFE466" fill-opacity="0.5"/>
<path d="M1.57932 31.1472C1.65944 31.4469 1.48228 31.7548 1.18363 31.835C0.884967 31.9152 0.577902 31.7373 0.497778 31.4377C0.417653 31.138 0.594809 30.8301 0.893468 30.7499C1.19213 30.6697 1.49919 30.8476 1.57932 31.1472Z" fill="#FFE466" fill-opacity="0.5"/>
<path d="M7.66904 31.0072C7.86363 31.7349 7.43339 32.4828 6.70808 32.6776C5.98276 32.8724 5.23703 32.4403 5.04245 31.7126C4.84786 30.9848 5.27809 30.237 6.00341 30.0422C6.72872 29.8474 7.47445 30.2795 7.66904 31.0072Z" fill="#FFE466" fill-opacity="0.5"/>
<path d="M40.3754 3.44829C40.57 4.17603 40.1398 4.92389 39.4144 5.11867C38.6891 5.31346 37.9434 4.88141 37.7488 4.15367C37.5542 3.42593 37.9845 2.67807 38.7098 2.48328C39.4351 2.2885 40.1808 2.72054 40.3754 3.44829Z" fill="#FFE466" fill-opacity="0.5"/>
<path d="M45.9899 50.4577C46.1845 51.1854 45.7542 51.9333 45.0289 52.1281C44.3036 52.3228 43.5579 51.8908 43.3633 51.163C43.1687 50.4353 43.5989 49.6874 44.3243 49.4927C45.0496 49.2979 45.7953 49.7299 45.9899 50.4577Z" fill="#FFE466" fill-opacity="0.5"/>
<path d="M76.4897 42.516C76.8788 43.9715 76.0184 45.4672 74.5677 45.8568C73.1171 46.2464 71.6257 45.3823 71.2365 43.9268C70.8473 42.4713 71.7078 40.9756 73.1584 40.586C74.609 40.1964 76.1005 41.0605 76.4897 42.516Z" fill="#FFE466" fill-opacity="0.5"/>
<path d="M75.9942 28.2767C76.1659 28.9188 75.7863 29.5787 75.1463 29.7506C74.5063 29.9224 73.8484 29.5412 73.6767 28.8991C73.505 28.257 73.8846 27.5971 74.5246 27.4252C75.1646 27.2534 75.8225 27.6346 75.9942 28.2767Z" fill="#FFE466" fill-opacity="0.5"/>
<path d="M80.4975 35.2089C80.6005 35.5942 80.3727 35.9901 79.9887 36.0933C79.6047 36.1964 79.2099 35.9676 79.1069 35.5824C79.0039 35.1971 79.2317 34.8012 79.6156 34.698C79.9996 34.5949 80.3944 34.8237 80.4975 35.2089Z" fill="#FFE466" fill-opacity="0.5"/>
<path d="M78.2628 29.329C78.3201 29.543 78.1935 29.763 77.9802 29.8203C77.7669 29.8776 77.5475 29.7505 77.4903 29.5365C77.4331 29.3224 77.5596 29.1025 77.7729 29.0452C77.9863 28.9879 78.2056 29.115 78.2628 29.329Z" fill="#FFE466" fill-opacity="0.5"/>
<path d="M43.5767 1.17624C43.6683 1.51871 43.4658 1.87064 43.1245 1.9623C42.7832 2.05397 42.4322 1.85065 42.3407 1.50818C42.2491 1.16572 42.4515 0.813785 42.7929 0.722121C43.1342 0.630457 43.4851 0.833773 43.5767 1.17624Z" fill="#FFE466" fill-opacity="0.5"/>
<path d="M74.862 8.55912C75.0681 9.32967 74.6125 10.1215 73.8446 10.3278C73.0766 10.534 72.287 10.0765 72.0809 9.30599C71.8749 8.53544 72.3305 7.7436 73.0984 7.53735C73.8664 7.33111 74.656 7.78857 74.862 8.55912Z" fill="#FFE466" fill-opacity="0.5"/>
<path d="M35.0356 2.05767C35.1386 2.44294 34.9109 2.83887 34.5269 2.94199C34.1429 3.04511 33.7481 2.81638 33.6451 2.43111C33.542 2.04583 33.7698 1.64991 34.1538 1.54678C34.5378 1.44366 34.9326 1.67239 35.0356 2.05767Z" fill="#FFE466" fill-opacity="0.5"/>
<path d="M59.7714 5.38406C59.8744 5.76933 59.6467 6.16526 59.2627 6.26838C58.8787 6.3715 58.4839 6.14277 58.3809 5.75749C58.2779 5.37222 58.5056 4.9763 58.8896 4.87317C59.2736 4.77005 59.6684 4.99878 59.7714 5.38406Z" fill="#FFE466" fill-opacity="0.5"/>
<path d="M71.9621 19.3903C72.0651 19.7756 71.8374 20.1715 71.4534 20.2746C71.0694 20.3777 70.6746 20.149 70.5716 19.7637C70.4686 19.3784 70.6963 18.9825 71.0803 18.8794C71.4643 18.7763 71.8591 19.005 71.9621 19.3903Z" fill="#FFE466" fill-opacity="0.5"/>
<path d="M30.0232 47.1025C30.1262 47.4877 29.8984 47.8837 29.5144 47.9868C29.1304 48.0899 28.7356 47.8612 28.6326 47.4759C28.5296 47.0906 28.7574 46.6947 29.1414 46.5916C29.5254 46.4885 29.9202 46.7172 30.0232 47.1025Z" fill="#FFE466" fill-opacity="0.5"/>
<path d="M68.3292 36.1506C68.3864 36.3647 68.2599 36.5846 68.0466 36.6419C67.8332 36.6992 67.6139 36.5721 67.5567 36.3581C67.4994 36.1441 67.626 35.9241 67.8393 35.8668C68.0526 35.8095 68.272 35.9366 68.3292 36.1506Z" fill="#FFE466" fill-opacity="0.5"/>
<path d="M65.0733 36.3604C65.1076 36.4888 65.0317 36.6208 64.9037 36.6552C64.7757 36.6895 64.6441 36.6133 64.6097 36.4849C64.5754 36.3564 64.6513 36.2245 64.7793 36.1901C64.9073 36.1557 65.0389 36.232 65.0733 36.3604Z" fill="#FFE466" fill-opacity="0.5"/>
<g clip-path="url(#clip0_302_1776)">
<path d="M56.7049 47.2241H53.488L53.8395 34.5263C53.8944 32.5396 52.7565 30.7339 50.9404 29.9263L47.1895 28.2582C47.1668 28.2481 47.1439 28.2398 47.1207 28.2324L46.5912 27.78C49.2673 26.9683 51.2685 25.9748 51.3633 25.9275C51.6874 25.7655 51.8188 25.3702 51.6592 25.0451C51.6457 25.0178 50.3186 22.2455 50.3186 16.1788V13.3606C50.3186 7.94679 45.9142 3.54242 40.5004 3.54242C35.0866 3.54242 30.6822 7.94679 30.6822 13.3606V16.1788C30.6822 22.2455 29.3551 25.0178 29.3428 25.043C29.1799 25.3687 29.3119 25.7646 29.6375 25.9275C29.7331 25.9752 31.734 26.9687 34.4095 27.7802L33.8083 28.2937L30.1371 29.9264C28.321 30.7339 27.1831 32.5396 27.238 34.5264L27.5895 47.2241H24.2959C23.9319 47.2241 23.6367 47.5192 23.6367 47.8832C23.6367 48.2473 23.9319 48.5424 24.2959 48.5424H56.7049C57.0689 48.5424 57.364 48.2473 57.364 47.8832C57.364 47.5192 57.0689 47.2241 56.7049 47.2241ZM32.0004 13.3608C32.0006 8.67383 35.8135 4.86078 40.5004 4.86078C45.1872 4.86078 49.0003 8.67383 49.0003 13.3606V16.1788C49.0003 20.9946 49.7976 23.8357 50.222 25.0067C49.3453 25.4033 47.5144 26.1762 45.3899 26.7539L45.1558 26.5539C45.0242 26.4415 44.8539 26.3867 44.6823 26.3985V24.7596C45.9171 23.9597 46.9236 22.8073 47.5427 21.405C47.9051 20.5843 48.1088 19.6725 48.132 18.768C48.2082 15.795 45.6576 15.0419 42.9572 14.2447C40.695 13.5768 38.1308 12.8199 36.0282 10.7746C35.7672 10.5208 35.35 10.5266 35.0962 10.7874C34.8423 11.0485 34.848 11.4658 35.109 11.7196C37.4452 13.992 40.2945 14.8332 42.5839 15.5092C45.4748 16.3626 46.8623 16.8562 46.8141 18.7341C46.7953 19.4684 46.6302 20.2078 46.3367 20.8725C45.3158 23.1847 43.0249 24.6788 40.5004 24.6788C37.4217 24.6788 34.7835 22.4816 34.2275 19.4545C34.1032 18.7777 33.4766 18.2866 32.8017 18.336C32.7279 18.3414 32.6524 18.3349 32.5764 18.317C32.2482 18.2393 32.0005 17.8862 32.0005 17.4956V16.9549C32.0005 16.5547 32.2623 16.207 32.6096 16.1461C32.8956 16.0958 33.1707 16.2013 33.3447 16.4282C33.4709 16.5928 33.6389 16.7104 33.8306 16.7683C34.1114 16.8531 34.4212 16.8034 34.6593 16.6353C35.2359 16.2284 35.7247 15.7121 36.1119 15.1009C36.3068 14.7934 36.2155 14.3862 35.908 14.1912C35.6005 13.9964 35.1933 14.0877 34.9983 14.3952C34.7627 14.767 34.4788 15.0919 34.152 15.3641C33.6815 14.9293 33.0308 14.7336 32.3816 14.8475C32.2491 14.8708 32.1219 14.9077 32.0004 14.9555V13.3608ZM37.6367 27.8226V25.4441C38.5261 25.8008 39.4933 25.997 40.5003 25.997C41.5001 25.997 42.469 25.8017 43.3639 25.4422V27.8225L41.3743 30.5894C41.372 30.5925 41.3701 30.5959 41.3679 30.5992C41.3657 30.6024 41.3631 30.6053 41.3609 30.6085L40.5381 31.8428C40.5333 31.8499 40.5246 31.863 40.5003 31.863C40.4759 31.863 40.4672 31.8499 40.4625 31.8428L39.6397 30.6085C39.6375 30.6053 39.6349 30.6024 39.6327 30.5992C39.6304 30.5959 39.6287 30.5925 39.6263 30.5894L37.6367 27.8226ZM38.1789 30.8345L37.2284 31.5474C37.05 31.6812 36.8232 31.7286 36.6061 31.6774C36.3891 31.6261 36.2074 31.4823 36.1077 31.2829L34.9798 29.0269L36.1564 28.0218L38.1789 30.8345ZM44.8445 28.0218L46.0211 29.0269L44.8932 31.2829C44.7934 31.4824 44.6117 31.6261 44.3947 31.6774C44.1776 31.7286 43.9509 31.6812 43.7725 31.5474L42.8219 30.8345L44.8445 28.0218ZM30.7787 25.0068C31.0961 24.1312 31.6218 22.3217 31.8669 19.4516C31.9955 19.515 32.1306 19.5662 32.2728 19.5999C32.4773 19.6482 32.685 19.6656 32.8899 19.6514C32.9051 19.6575 32.9272 19.6798 32.9308 19.6926C33.3253 21.8406 34.5892 23.6415 36.3185 24.7615V26.3985C36.1468 26.3867 35.9766 26.4415 35.845 26.5539L35.6109 26.7539C33.4863 26.1761 31.6553 25.4033 30.7787 25.0068ZM30.6727 31.1309L33.851 29.7175L34.9285 31.8725C35.2036 32.4226 35.7046 32.8191 36.3032 32.9604C36.4613 32.9977 36.6212 33.0161 36.7802 33.0161C37.2229 33.0161 37.6573 32.8736 38.0194 32.6021L38.9294 31.9196L39.3658 32.5741C39.6193 32.9544 40.0434 33.1814 40.5005 33.1814C40.9575 33.1814 41.3817 32.9544 41.6351 32.5741L42.0714 31.9196L42.9814 32.6021C43.3436 32.8736 43.7779 33.0161 44.2206 33.0161C44.3795 33.0161 44.5396 32.9977 44.6977 32.9604C45.2963 32.8191 45.7973 32.4226 46.0724 31.8725L47.1638 29.6896L50.4049 31.1309C50.6595 31.2441 50.8956 31.3844 51.111 31.5471L48.7149 34.5422H32.3629L29.9667 31.5471C30.182 31.3845 30.4181 31.2442 30.6727 31.1309ZM30.0614 36.7253L30.6094 46.5888C30.6218 46.8123 30.67 47.0256 30.7472 47.2241H28.9085L28.5559 34.4899C28.5364 33.7852 28.7229 33.1122 29.0713 32.5383L30.9623 34.9021C30.8402 34.985 30.7264 35.0808 30.6239 35.1892C30.235 35.6003 30.03 36.1602 30.0614 36.7253ZM49.6233 36.6522L49.0753 46.5158C49.0532 46.913 48.7243 47.2241 48.3265 47.2241H32.6743V47.2241C32.2765 47.2241 31.9477 46.9129 31.9256 46.5158L31.3776 36.6521C31.3661 36.4443 31.4385 36.2465 31.5816 36.0953C31.7247 35.944 31.9181 35.8608 32.1263 35.8608H48.8745C49.0827 35.8608 49.2762 35.944 49.4193 36.0953C49.5623 36.2465 49.6348 36.4443 49.6233 36.6522ZM52.1691 47.2241H50.2537C50.3309 47.0256 50.3791 46.8123 50.3915 46.5889L50.9395 36.7253C50.9709 36.1602 50.7658 35.6003 50.377 35.1892C50.2883 35.0955 50.1911 35.0114 50.0877 34.9366L52.0063 32.5382C52.3546 33.1122 52.5411 33.7853 52.5216 34.4899L52.1691 47.2241Z" fill="black"/>
<path d="M40.5007 39.474C39.166 39.474 38.0801 40.5598 38.0801 41.8946C38.0801 43.2294 39.1659 44.3152 40.5007 44.3152C41.8355 44.3152 42.9213 43.2294 42.9213 41.8946C42.9213 40.5598 41.8354 39.474 40.5007 39.474ZM40.5007 42.9968C39.8929 42.9968 39.3984 42.5023 39.3984 41.8945C39.3984 41.2868 39.8928 40.7923 40.5007 40.7923C41.1085 40.7923 41.6029 41.2868 41.6029 41.8945C41.6029 42.5023 41.1084 42.9968 40.5007 42.9968Z" fill="black"/>
</g>
<defs>
<clipPath id="clip0_302_1776">
<rect width="45" height="45" fill="white" transform="translate(18 3.54242)"/>
</clipPath>
</defs>
</svg>
